MemphisModern.ufo
<glyph name="percent" format="2">
  <advance width="833"/>
  <unicode hex="0025"/>
  <outline>
    <contour>
      <point x="143" y="0" type="line"/>
      <point x="209" y="0" type="line"/>
      <point x="691" y="750" type="line"/>
      <point x="624" y="750" type="line"/>
    </contour>
    <contour>
      <point x="624" y="45" type="curve" smooth="yes"/>
      <point x="557" y="45"/>
      <point x="516" y="98"/>
      <point x="516" y="164" type="curve" smooth="yes"/>
      <point x="516" y="228"/>
      <point x="558" y="282"/>
      <point x="623" y="282" type="curve" smooth="yes"/>
      <point x="688" y="282"/>
      <point x="734" y="229"/>
      <point x="734" y="164" type="curve" smooth="yes"/>
      <point x="734" y="97"/>
      <point x="690" y="45"/>
    </contour>
    <contour>
      <point x="220" y="469" type="curve" smooth="yes"/>
      <point x="155" y="469"/>
      <point x="111" y="521"/>
      <point x="111" y="587" type="curve" smooth="yes"/>
      <point x="111" y="652"/>
      <point x="155" y="705"/>
      <point x="220" y="705" type="curve" smooth="yes"/>
      <point x="284" y="705"/>
      <point x="328" y="652"/>
      <point x="328" y="587" type="curve" smooth="yes"/>
      <point x="328" y="522"/>
      <point x="284" y="469"/>
    </contour>
    <contour>
      <point x="623" y="327" type="curve" smooth="yes"/>
      <point x="533" y="327"/>
      <point x="462" y="254"/>
      <point x="462" y="164" type="curve" smooth="yes"/>
      <point x="462" y="73"/>
      <point x="535" y="0"/>
      <point x="625" y="0" type="curve" smooth="yes"/>
      <point x="715" y="0"/>
      <point x="789" y="73"/>
      <point x="789" y="164" type="curve" smooth="yes"/>
      <point x="789" y="254"/>
      <point x="712" y="327"/>
    </contour>
    <contour>
      <point x="217" y="425" type="curve" smooth="yes"/>
      <point x="308" y="425"/>
      <point x="383" y="495"/>
      <point x="383" y="587" type="curve" smooth="yes"/>
      <point x="383" y="677"/>
      <point x="309" y="750"/>
      <point x="220" y="750" type="curve" smooth="yes"/>
      <point x="130" y="750"/>
      <point x="56" y="677"/>
      <point x="56" y="587" type="curve" smooth="yes"/>
      <point x="56" y="497"/>
      <point x="127" y="425"/>
    </contour>
  </outline>
</glyph>
<glyph name="ampersand" format="2">
  <advance width="716"/>
  <unicode hex="0026"/>
  <outline>
    <contour>
      <point x="426" y="166" type="line"/>
      <point x="373" y="107"/>
      <point x="293" y="40"/>
      <point x="208" y="40" type="curve" smooth="yes"/>
      <point x="137" y="40"/>
      <point x="85" y="93"/>
      <point x="85" y="162" type="curve" smooth="yes"/>
      <point x="85" y="241"/>
      <point x="190" y="335"/>
      <point x="238" y="377" type="curve"/>
    </contour>
    <contour>
      <point x="248" y="453" type="curve"/>
      <point x="216" y="493"/>
      <point x="172" y="535"/>
      <point x="172" y="588" type="curve" smooth="yes"/>
      <point x="172" y="647"/>
      <point x="202" y="700"/>
      <point x="266" y="700" type="curve" smooth="yes"/>
      <point x="320" y="700"/>
      <point x="364" y="658"/>
      <point x="364" y="603" type="curve" smooth="yes"/>
      <point x="364" y="533"/>
      <point x="298" y="498"/>
    </contour>
    <contour>
      <point x="579" y="1" type="line"/>
      <point x="693" y="1" type="line"/>
      <point x="693" y="50" type="line"/>
      <point x="606" y="50" type="line"/>
      <point x="500" y="169" type="line"/>
      <point x="555" y="236"/>
      <point x="593" y="312"/>
      <point x="623" y="395" type="curve"/>
      <point x="685" y="395" type="line"/>
      <point x="685" y="445" type="line"/>
      <point x="493" y="445" type="line"/>
      <point x="493" y="395" type="line"/>
      <point x="561" y="395" type="line"/>
      <point x="541" y="325"/>
      <point x="506" y="265"/>
      <point x="462" y="209" type="curve"/>
      <point x="281" y="413" type="line"/>
      <point x="343" y="469"/>
      <point x="420" y="512"/>
      <point x="420" y="602" type="curve" smooth="yes"/>
      <point x="420" y="682"/>
      <point x="352" y="750"/>
      <point x="273" y="750" type="curve" smooth="yes"/>
      <point x="181" y="750"/>
      <point x="116" y="687"/>
      <point x="116" y="594" type="curve" smooth="yes"/>
      <point x="116" y="513"/>
      <point x="159" y="480"/>
      <point x="206" y="419" type="curve"/>
      <point x="135" y="360"/>
      <point x="29" y="273"/>
      <point x="29" y="166" type="curve" smooth="yes"/>
      <point x="29" y="70"/>
      <point x="101" y="-10"/>
      <point x="204" y="-10" type="curve" smooth="yes"/>
      <point x="313" y="-10"/>
      <point x="395" y="48"/>
      <point x="465" y="125" type="curve"/>
    </contour>
  </outline>
</glyph>
<glyph name="quotesingle" format="2">
  <advance width="250"/>
  <unicode hex="0027"/>
  <outline>
    <contour>
      <point x="57" y="538" type="line"/>
      <point x="119" y="749" type="line"/>
      <point x="183" y="750" type="line"/>
      <point x="112" y="538" type="line"/>
      <point x="59" y="538" type="line"/>
    </contour>
  </outline>
</glyph>
<glyph name="parenleft" format="2">
  <advance width="278"/>
  <unicode hex="0028"/>
  <outline>
    <contour>
      <point x="193" y="781" type="line"/>
      <point x="84" y="642"/>
      <point x="34" y="503"/>
      <point x="34" y="327" type="curve" smooth="yes"/>
      <point x="34" y="177"/>
      <point x="98" y="12"/>
      <point x="196" y="-103" type="curve"/>
      <point x="234" y="-71" type="line"/>
      <point x="133" y="64"/>
      <point x="89" y="192"/>
      <point x="89" y="340" type="curve" smooth="yes"/>
      <point x="89" y="503"/>
      <point x="147" y="638"/>
      <point x="234" y="750" type="curve"/>
    </contour>
  </outline>
</glyph>
<glyph name="plus" format="2">
  <advance width="436"/>
  <unicode hex="002B"/>
  <outline>
    <contour>
      <point x="43" y="257" type="line"/>
      <point x="393" y="257" type="line"/>
      <point x="393" y="207" type="line"/>
      <point x="43" y="207" type="line"/>
    </contour>
    <contour>
      <point x="43" y="257" type="line"/>
      <point x="393" y="257" type="line"/>
      <point x="393" y="207" type="line"/>
      <point x="43" y="207" type="line"/>
    </contour>
    <contour>
      <point x="193" y="57" type="line"/>
      <point x="193" y="407" type="line"/>
      <point x="243" y="407" type="line"/>
      <point x="243" y="57" type="line"/>
    </contour>
    <contour>
      <point x="193" y="57" type="line"/>
      <point x="193" y="407" type="line"/>
      <point x="243" y="407" type="line"/>
      <point x="243" y="57" type="line"/>
    </contour>
  </outline>
</glyph>
<glyph name="period" format="2">
  <advance width="188"/>
  <unicode hex="002E"/>
  <outline>
    <contour>
      <point x="40" y="49" type="line" smooth="yes"/>
      <point x="40" y="77"/>
      <point x="65" y="102"/>
      <point x="94" y="102" type="curve" smooth="yes"/>
      <point x="123" y="102"/>
      <point x="148" y="77"/>
      <point x="148" y="48" type="curve" smooth="yes"/>
      <point x="148" y="19"/>
      <point x="123" y="-5"/>
      <point x="94" y="-5" type="curve" smooth="yes"/>
      <point x="65" y="-5"/>
      <point x="40" y="19"/>
      <point x="40" y="48" type="curve" smooth="yes"/>
    </contour>
  </outline>
</glyph>
<glyph name="one" format="2">
  <advance width="348"/>
  <unicode hex="0031"/>
  <outline>
    <contour>
      <point x="307" y="0" type="line"/>
      <point x="307" y="50" type="line"/>
      <point x="216" y="50" type="line"/>
      <point x="216" y="750" type="line"/>
      <point x="155" y="750" type="line"/>
      <point x="67" y="718" type="line"/>
      <point x="67" y="670" type="line"/>
      <point x="155" y="689" type="line"/>
      <point x="155" y="50" type="line"/>
      <point x="64" y="50" type="line"/>
      <point x="64" y="0" type="line"/>
    </contour>
  </outline>
</glyph>
<glyph name="four" format="2">
  <advance width="490"/>
  <unicode hex="0034"/>
  <outline>
    <contour>
      <point x="474" y="0" type="line"/>
      <point x="228" y="0" type="line"/>
      <point x="228" y="49" type="line"/>
      <point x="325" y="49" type="line"/>
      <point x="325" y="202" type="line"/>
      <point x="13" y="202" type="line"/>
      <point x="13" y="249" type="line"/>
      <point x="324" y="750" type="line"/>
      <point x="381" y="750" type="line"/>
      <point x="381" y="251" type="line"/>
      <point x="472" y="251" type="line"/>
      <point x="472" y="202" type="line"/>
      <point x="381" y="202" type="line"/>
      <point x="381" y="49" type="line"/>
      <point x="474" y="49" type="line"/>
    </contour>
    <contour>
      <point x="323" y="651" type="line"/>
      <point x="75" y="251" type="line"/>
      <point x="325" y="251" type="line"/>
      <point x="325" y="651" type="line"/>
    </contour>
  </outline>
</glyph>
<glyph name="colon" format="2">
  <advance width="206"/>
  <unicode hex="003A"/>
  <outline>
    <contour>
      <point x="50" y="422" type="line" smooth="yes"/>
      <point x="50" y="450"/>
      <point x="75" y="475"/>
      <point x="104" y="475" type="curve" smooth="yes"/>
      <point x="133" y="475"/>
      <point x="158" y="450"/>
      <point x="158" y="421" type="curve" smooth="yes"/>
      <point x="158" y="392"/>
      <point x="133" y="368"/>
      <point x="104" y="368" type="curve" smooth="yes"/>
      <point x="75" y="368"/>
      <point x="50" y="392"/>
      <point x="50" y="421" type="curve" smooth="yes"/>
    </contour>
    <contour>
      <point x="50" y="52" type="line" smooth="yes"/>
      <point x="50" y="80"/>
      <point x="75" y="105"/>
      <point x="104" y="105" type="curve" smooth="yes"/>
      <point x="133" y="105"/>
      <point x="158" y="80"/>
      <point x="158" y="51" type="curve" smooth="yes"/>
      <point x="158" y="22"/>
      <point x="133" y="-2"/>
      <point x="104" y="-2" type="curve" smooth="yes"/>
      <point x="75" y="-2"/>
      <point x="50" y="22"/>
      <point x="50" y="51" type="curve" smooth="yes"/>
    </contour>
  </outline>
</glyph>
<glyph name="at" format="2">
  <advance width="705"/>
  <unicode hex="0040"/>
  <outline>
    <contour>
      <point x="531" y="155" type="curve" smooth="yes"/>
      <point x="574" y="155"/>
      <point x="606" y="174"/>
      <point x="628" y="213" type="curve" smooth="yes"/>
      <point x="650" y="251"/>
      <point x="661" y="298"/>
      <point x="661" y="354" type="curve" smooth="yes"/>
      <point x="661" y="375" type="line" smooth="yes"/>
      <point x="661" y="411"/>
      <point x="654" y="446"/>
      <point x="641" y="479" type="curve" smooth="yes"/>
      <point x="628" y="512"/>
      <point x="609" y="541"/>
      <point x="585" y="567" type="curve" smooth="yes"/>
      <point x="560" y="593"/>
      <point x="529" y="614"/>
      <point x="491" y="629" type="curve" smooth="yes"/>
      <point x="452" y="644"/>
      <point x="410" y="652"/>
      <point x="363" y="652" type="curve" smooth="yes"/>
      <point x="359" y="652" type="line" smooth="yes"/>
      <point x="299" y="652"/>
      <point x="245" y="639"/>
      <point x="198" y="614" type="curve" smooth="yes"/>
      <point x="151" y="588"/>
      <point x="113" y="551"/>
      <point x="86" y="503" type="curve" smooth="yes"/>
      <point x="59" y="455"/>
      <point x="45" y="399"/>
      <point x="45" y="336" type="curve" smooth="yes"/>
      <point x="45" y="311" type="line" smooth="yes"/>
      <point x="45" y="260"/>
      <point x="53" y="215"/>
      <point x="70" y="175" type="curve" smooth="yes"/>
      <point x="86" y="135"/>
      <point x="108" y="103"/>
      <point x="137" y="78" type="curve" smooth="yes"/>
      <point x="166" y="53"/>
      <point x="199" y="34"/>
      <point x="236" y="21" type="curve" smooth="yes"/>
      <point x="273" y="8"/>
      <point x="314" y="1"/>
      <point x="357" y="1" type="curve" smooth="yes"/>
      <point x="361" y="1" type="line" smooth="yes"/>
      <point x="423" y="1"/>
      <point x="468" y="7"/>
      <point x="497" y="20" type="curve"/>
      <point x="503" y="63" type="line"/>
      <point x="470" y="49"/>
      <point x="422" y="42"/>
      <point x="361" y="42" type="curve" smooth="yes"/>
      <point x="357" y="42" type="line" smooth="yes"/>
      <point x="320" y="42"/>
      <point x="286" y="48"/>
      <point x="255" y="59" type="curve" smooth="yes"/>
      <point x="224" y="70"/>
      <point x="196" y="87"/>
      <point x="171" y="109" type="curve" smooth="yes"/>
      <point x="146" y="131"/>
      <point x="127" y="160"/>
      <point x="114" y="195" type="curve" smooth="yes"/>
      <point x="100" y="230"/>
      <point x="93" y="269"/>
      <point x="93" y="313" type="curve" smooth="yes"/>
      <point x="93" y="333" type="line" smooth="yes"/>
      <point x="93" y="376"/>
      <point x="100" y="415"/>
      <point x="114" y="450" type="curve" smooth="yes"/>
      <point x="127" y="485"/>
      <point x="146" y="514"/>
      <point x="170" y="538" type="curve" smooth="yes"/>
      <point x="194" y="561"/>
      <point x="222" y="579"/>
      <point x="255" y="592" type="curve" smooth="yes"/>
      <point x="287" y="604"/>
      <point x="322" y="610"/>
      <point x="361" y="610" type="curve" smooth="yes"/>
      <point x="365" y="610" type="line" smooth="yes"/>
      <point x="397" y="610"/>
      <point x="426" y="605"/>
      <point x="453" y="594" type="curve" smooth="yes"/>
      <point x="480" y="583"/>
      <point x="503" y="570"/>
      <point x="523" y="556" type="curve"/>
      <point x="542" y="541"/>
      <point x="559" y="524"/>
      <point x="573" y="505" type="curve" smooth="yes"/>
      <point x="587" y="485"/>
      <point x="597" y="463"/>
      <point x="604" y="440" type="curve" smooth="yes"/>
      <point x="611" y="417"/>
      <point x="614" y="393"/>
      <point x="614" y="369" type="curve" smooth="yes"/>
      <point x="614" y="353" type="line" smooth="yes"/>
      <point x="614" y="259"/>
      <point x="588" y="204"/>
      <point x="540" y="204" type="curve" smooth="yes"/>
      <point x="529" y="204"/>
      <point x="515" y="204"/>
      <point x="499" y="204" type="curve" smooth="yes"/>
      <point x="483" y="204"/>
      <point x="476" y="213"/>
      <point x="477" y="232" type="curve"/>
      <point x="472" y="239"/>
      <point x="474" y="247"/>
      <point x="481" y="255" type="curve"/>
      <point x="511" y="424" type="line"/>
      <point x="542" y="424" type="line"/>
      <point x="548" y="465" type="line"/>
      <point x="477" y="465" type="line"/>
      <point x="467" y="411" type="line"/>
      <point x="443" y="449"/>
      <point x="400" y="472"/>
      <point x="354" y="472" type="curve" smooth="yes"/>
      <point x="263" y="472"/>
      <point x="182" y="401"/>
      <point x="182" y="308" type="curve" smooth="yes"/>
      <point x="182" y="225"/>
      <point x="234" y="158"/>
      <point x="323" y="158" type="curve" smooth="yes"/>
      <point x="371" y="158"/>
      <point x="412" y="177"/>
      <point x="440" y="209" type="curve"/>
      <point x="446" y="195"/>
      <point x="455" y="183"/>
      <point x="467" y="172" type="curve" smooth="yes"/>
      <point x="480" y="161"/>
      <point x="502" y="155"/>
    </contour>
    <contour>
      <point x="444" y="331" type="curve" smooth="yes"/>
      <point x="444" y="260"/>
      <point x="399" y="200"/>
      <point x="330" y="200" type="curve" smooth="yes"/>
      <point x="277" y="200"/>
      <point x="237" y="247"/>
      <point x="237" y="300" type="curve" smooth="yes"/>
      <point x="237" y="370"/>
      <point x="281" y="429"/>
      <point x="354" y="429" type="curve" smooth="yes"/>
      <point x="408" y="429"/>
      <point x="444" y="389"/>
    </contour>
    <contour>
      <point x="481" y="255" type="line"/>
      <point x="481" y="259" type="line"/>
    </contour>
    <contour>
      <point x="490" y="306" type="curve"/>
      <point x="468" y="269" type="line"/>
      <point x="463" y="211" type="line"/>
      <point x="511" y="194" type="line"/>
      <point x="543" y="204" type="line"/>
      <point x="479" y="202"/>
      <point x="473" y="230"/>
    </contour>
  </outline>
</glyph>
<glyph name="M" format="2">
  <advance width="946"/>
  <unicode hex="004D"/>
  <outline>
    <contour>
      <point x="739" y="750" type="line"/>
      <point x="474" y="119" type="line"/>
      <point x="472" y="119" type="line"/>
      <point x="207" y="750" type="line"/>
      <point x="39" y="750" type="line"/>
      <point x="39" y="701" type="line"/>
      <point x="127" y="701" type="line"/>
      <point x="127" y="50" type="line"/>
      <point x="39" y="50" type="line"/>
      <point x="39" y="0" type="line"/>
      <point x="273" y="0" type="line"/>
      <point x="273" y="50" type="line"/>
      <point x="187" y="50" type="line"/>
      <point x="187" y="652" type="line"/>
      <point x="189" y="652" type="line"/>
      <point x="455" y="31" type="line"/>
      <point x="491" y="31" type="line"/>
      <point x="756" y="652" type="line"/>
      <point x="759" y="652" type="line"/>
      <point x="759" y="50" type="line"/>
      <point x="673" y="50" type="line"/>
      <point x="673" y="0" type="line"/>
      <point x="907" y="0" type="line"/>
      <point x="907" y="50" type="line"/>
      <point x="819" y="50" type="line"/>
      <point x="819" y="701" type="line"/>
      <point x="907" y="701" type="line"/>
      <point x="907" y="750" type="line"/>
    </contour>
  </outline>
</glyph>
<glyph name="V" format="2">
  <advance width="695"/>
  <unicode hex="0056"/>
  <outline>
    <contour>
      <point x="20" y="702" type="line"/>
      <point x="20" y="750" type="line"/>
      <point x="232" y="750" type="line"/>
      <point x="232" y="702" type="line"/>
      <point x="155" y="702" type="line"/>
      <point x="345" y="105" type="line"/>
      <point x="347" y="105" type="line"/>
      <point x="541" y="702" type="line"/>
      <point x="464" y="702" type="line"/>
      <point x="464" y="750" type="line"/>
      <point x="675" y="750" type="line"/>
      <point x="675" y="702" type="line"/>
      <point x="598" y="702" type="line"/>
      <point x="369" y="0" type="line"/>
      <point x="322" y="0" type="line"/>
      <point x="97" y="702" type="line"/>
    </contour>
  </outline>
</glyph>
<glyph name="W" format="2">
  <advance width="1049"/>
  <unicode hex="0057"/>
  <outline>
    <contour>
      <point x="20" y="701" type="line"/>
      <point x="97" y="701" type="line"/>
      <point x="323" y="0" type="line"/>
      <point x="377" y="0" type="line"/>
      <point x="521" y="617" type="line"/>
      <point x="523" y="617" type="line"/>
      <point x="672" y="0" type="line"/>
      <point x="725" y="0" type="line"/>
      <point x="952" y="701" type="line"/>
      <point x="1029" y="701" type="line"/>
      <point x="1029" y="751" type="line"/>
      <point x="820" y="751" type="line"/>
      <point x="820" y="701" type="line"/>
      <point x="900" y="701" type="line"/>
      <point x="703" y="106" type="line"/>
      <point x="556" y="701" type="line"/>
      <point x="636" y="701" type="line"/>
      <point x="636" y="751" type="line"/>
      <point x="413" y="751" type="line"/>
      <point x="413" y="701" type="line"/>
      <point x="493" y="701" type="line"/>
      <point x="346" y="106" type="line"/>
      <point x="151" y="701" type="line"/>
      <point x="231" y="701" type="line"/>
      <point x="231" y="751" type="line"/>
      <point x="20" y="751" type="line"/>
    </contour>
  </outline>
</glyph>
<glyph name="Y" format="2">
  <advance width="728"/>
  <unicode hex="0059"/>
  <outline>
    <contour>
      <point x="21" y="750" type="line"/>
      <point x="21" y="700" type="line"/>
      <point x="107" y="700" type="line"/>
      <point x="329" y="326" type="line"/>
      <point x="329" y="50" type="line"/>
      <point x="243" y="50" type="line"/>
      <point x="243" y="0" type="line"/>
      <point x="476" y="0" type="line"/>
      <point x="476" y="50" type="line"/>
      <point x="390" y="50" type="line"/>
      <point x="390" y="326" type="line"/>
      <point x="621" y="700" type="line"/>
      <point x="707" y="700" type="line"/>
      <point x="707" y="750" type="line"/>
      <point x="474" y="750" type="line"/>
      <point x="474" y="700" type="line"/>
      <point x="559" y="700" type="line"/>
      <point x="361" y="380" type="line"/>
      <point x="358" y="380" type="line"/>
      <point x="169" y="700" type="line"/>
      <point x="254" y="700" type="line"/>
      <point x="254" y="750" type="line"/>
    </contour>
  </outline>
</glyph>
<glyph name="bracketleft" format="2">
  <advance width="279"/>
  <unicode hex="005B"/>
  <outline>
    <contour>
      <point x="229" y="-85" type="line"/>
      <point x="229" y="-36" type="line"/>
      <point x="81" y="-36" type="line"/>
      <point x="81" y="731" type="line"/>
      <point x="229" y="731" type="line"/>
      <point x="229" y="781" type="line"/>
      <point x="25" y="781" type="line"/>
      <point x="25" y="-85" type="line"/>
    </contour>
  </outline>
</glyph>
<glyph name="backslash" format="2">
  <advance width="288"/>
  <unicode hex="005C"/>
  <outline>
    <contour>
      <point x="290" y="-16" type="line"/>
      <point x="47" y="763" type="line"/>
      <point x="-1" y="763" type="line"/>
      <point x="242" y="-16" type="line"/>
    </contour>
  </outline>
</glyph>
<glyph name="asciicircum" format="2">
  <advance width="600"/>
  <unicode hex="005E"/>
  <outline>
    <contour>
      <point x="148" y="341" type="line"/>
      <point x="300" y="642" type="line"/>
      <point x="452" y="341" type="line"/>
      <point x="507" y="341" type="line"/>
      <point x="323" y="706" type="line"/>
      <point x="277" y="706" type="line"/>
      <point x="93" y="341" type="line"/>
    </contour>
  </outline>
</glyph>
<glyph name="grave" format="2">
  <advance width="278"/>
  <unicode hex="0060"/>
  <outline>
    <contour>
      <point x="152" y="575" type="line"/>
      <point x="202" y="575" type="line"/>
      <point x="91" y="714" type="line"/>
      <point x="14" y="714" type="line"/>
    </contour>
  </outline>
</glyph>
<glyph name="b" format="2">
  <advance width="630"/>
  <unicode hex="0062"/>
  <outline>
    <contour>
      <point x="16" y="750" type="line"/>
      <point x="16" y="700" type="line"/>
      <point x="89" y="700" type="line"/>
      <point x="89" y="50" type="line"/>
      <point x="15" y="50" type="line"/>
      <point x="15" y="0" type="line"/>
      <point x="141" y="0" type="line"/>
      <point x="141" y="98" type="line"/>
      <point x="142" y="97"/>
      <point x="142" y="96"/>
      <point x="143" y="95" type="curve"/>
      <point x="149" y="85"/>
      <point x="156" y="76"/>
      <point x="164" y="67" type="curve" smooth="yes"/>
      <point x="205" y="22"/>
      <point x="261" y="0"/>
      <point x="332" y="0" type="curve" smooth="yes"/>
      <point x="404" y="0"/>
      <point x="464" y="22"/>
      <point x="511" y="67" type="curve" smooth="yes"/>
      <point x="558" y="112"/>
      <point x="581" y="168"/>
      <point x="580" y="235" type="curve" smooth="yes"/>
      <point x="580" y="302"/>
      <point x="557" y="359"/>
      <point x="510" y="406" type="curve" smooth="yes"/>
      <point x="463" y="452"/>
      <point x="403" y="475"/>
      <point x="332" y="475" type="curve" smooth="yes"/>
      <point x="261" y="475"/>
      <point x="205" y="452"/>
      <point x="164" y="406" type="curve"/>
      <point x="156" y="396"/>
      <point x="148" y="385"/>
      <point x="141" y="374" type="curve"/>
      <point x="141" y="750" type="line"/>
    </contour>
    <contour>
      <point x="143" y="236" type="line" smooth="yes"/>
      <point x="143" y="350"/>
      <point x="217" y="420"/>
      <point x="332" y="420" type="curve" smooth="yes"/>
      <point x="388" y="420"/>
      <point x="433" y="404"/>
      <point x="468" y="371" type="curve" smooth="yes"/>
      <point x="503" y="338"/>
      <point x="520" y="292"/>
      <point x="520" y="235" type="curve" smooth="yes"/>
      <point x="520" y="178"/>
      <point x="503" y="133"/>
      <point x="468" y="102" type="curve" smooth="yes"/>
      <point x="433" y="70"/>
      <point x="387" y="54"/>
      <point x="330" y="54" type="curve" smooth="yes"/>
      <point x="217" y="54"/>
      <point x="143" y="120"/>
      <point x="143" y="235" type="curve" smooth="yes"/>
    </contour>
  </outline>
</glyph>
<glyph name="e" format="2">
  <advance width="554"/>
  <unicode hex="0065"/>
  <outline>
    <contour>
      <point x="509" y="221" type="line"/>
      <point x="509" y="221"/>
      <point x="510" y="243"/>
      <point x="510" y="244" type="curve" smooth="yes"/>
      <point x="510" y="397"/>
      <point x="405" y="480"/>
      <point x="276" y="480" type="curve" smooth="yes"/>
      <point x="141" y="480"/>
      <point x="44" y="397"/>
      <point x="44" y="242" type="curve" smooth="yes"/>
      <point x="46" y="66"/>
      <point x="139" y="-3"/>
      <point x="277" y="-3" type="curve" smooth="yes"/>
      <point x="378" y="-3"/>
      <point x="455" y="33"/>
      <point x="490" y="120" type="curve"/>
      <point x="441" y="142" type="line"/>
      <point x="441" y="141"/>
      <point x="440" y="141"/>
      <point x="440" y="140" type="curve"/>
      <point x="409" y="72"/>
      <point x="346" y="48"/>
      <point x="277" y="49" type="curve" smooth="yes"/>
      <point x="177" y="51"/>
      <point x="101" y="103"/>
      <point x="101" y="221" type="curve"/>
      <point x="456" y="221" type="line"/>
    </contour>
    <contour>
      <point x="277" y="429" type="curve" smooth="yes"/>
      <point x="369" y="429"/>
      <point x="454" y="375"/>
      <point x="454" y="267" type="curve"/>
      <point x="101" y="267" type="line"/>
      <point x="101" y="375"/>
      <point x="191" y="432"/>
    </contour>
    <contour>
      <point x="490" y="120" type="line"/>
      <point x="491" y="119" type="line"/>
    </contour>
  </outline>
</glyph>
<glyph name="w" format="2">
  <advance width="828"/>
  <unicode hex="0077"/>
  <outline>
    <contour>
      <point x="413" y="390" type="line"/>
      <point x="293" y="0" type="line"/>
      <point x="252" y="0" type="line"/>
      <point x="90" y="428" type="line"/>
      <point x="8" y="428" type="line"/>
      <point x="8" y="475" type="line"/>
      <point x="228" y="475" type="line"/>
      <point x="228" y="428" type="line"/>
      <point x="149" y="428" type="line"/>
      <point x="271" y="107" type="line"/>
      <point x="273" y="107" type="line"/>
      <point x="368" y="428" type="line"/>
      <point x="292" y="428" type="line"/>
      <point x="292" y="475" type="line"/>
      <point x="536" y="475" type="line"/>
      <point x="536" y="428" type="line"/>
      <point x="460" y="428" type="line"/>
      <point x="554" y="107" type="line"/>
      <point x="556" y="107" type="line"/>
      <point x="681" y="428" type="line"/>
      <point x="602" y="428" type="line"/>
      <point x="602" y="475" type="line"/>
      <point x="820" y="475" type="line"/>
      <point x="820" y="428" type="line"/>
      <point x="738" y="428" type="line"/>
      <point x="575" y="0" type="line"/>
      <point x="534" y="0" type="line"/>
      <point x="415" y="390" type="line"/>
    </contour>
  </outline>
</glyph>
<glyph name="currency" format="2">
  <advance width="500"/>
  <unicode hex="00A4"/>
  <outline>
    <contour>
      <point x="95" y="164" type="line"/>
      <point x="140" y="124"/>
      <point x="195" y="106"/>
      <point x="250" y="106" type="curve" smooth="yes"/>
      <point x="305" y="106"/>
      <point x="360" y="124"/>
      <point x="405" y="164" type="curve"/>
      <point x="458" y="106" type="line"/>
      <point x="496" y="144" type="line"/>
      <point x="443" y="200" type="line"/>
      <point x="480" y="246"/>
      <point x="496" y="300"/>
      <point x="496" y="350" type="curve" smooth="yes"/>
      <point x="496" y="400"/>
      <point x="480" y="454"/>
      <point x="443" y="500" type="curve"/>
      <point x="496" y="556" type="line"/>
      <point x="458" y="594" type="line"/>
      <point x="405" y="536" type="line"/>
      <point x="360" y="576"/>
      <point x="305" y="594"/>
      <point x="250" y="594" type="curve" smooth="yes"/>
      <point x="195" y="594"/>
      <point x="140" y="576"/>
      <point x="95" y="536" type="curve"/>
      <point x="42" y="594" type="line"/>
      <point x="4" y="556" type="line"/>
      <point x="57" y="500" type="line"/>
      <point x="20" y="454"/>
      <point x="4" y="400"/>
      <point x="4" y="350" type="curve" smooth="yes"/>
      <point x="4" y="300"/>
      <point x="20" y="246"/>
      <point x="57" y="200" type="curve"/>
      <point x="4" y="144" type="line"/>
      <point x="42" y="106" type="line"/>
    </contour>
    <contour>
      <point x="250" y="548" type="curve" smooth="yes"/>
      <point x="359" y="548"/>
      <point x="444" y="456"/>
      <point x="444" y="350" type="curve" smooth="yes"/>
      <point x="444" y="244"/>
      <point x="360" y="152"/>
      <point x="250" y="152" type="curve" smooth="yes"/>
      <point x="144" y="152"/>
      <point x="56" y="240"/>
      <point x="56" y="350" type="curve" smooth="yes"/>
      <point x="56" y="459"/>
      <point x="143" y="548"/>
    </contour>
  </outline>
</glyph>
<glyph name="brokenbar" format="2">
  <advance width="222"/>
  <unicode hex="00A6"/>
  <outline>
    <contour>
      <point x="89" y="-70" type="line"/>
      <point x="133" y="-70" type="line"/>
      <point x="133" y="280" type="line"/>
      <point x="89" y="280" type="line"/>
    </contour>
    <contour>
      <point x="89" y="430" type="line"/>
      <point x="133" y="430" type="line"/>
      <point x="133" y="780" type="line"/>
      <point x="89" y="780" type="line"/>
    </contour>
  </outline>
</glyph>
<glyph name="copyright" format="2">
  <advance width="764"/>
  <unicode hex="00A9"/>
  <outline>
    <contour>
      <point x="551" y="385" type="curve"/>
      <point x="551" y="507" type="line"/>
      <point x="511" y="507" type="line"/>
      <point x="511" y="455" type="line"/>
      <point x="477" y="490"/>
      <point x="429" y="509"/>
      <point x="376" y="509" type="curve" smooth="yes"/>
      <point x="269" y="509"/>
      <point x="191" y="445"/>
      <point x="191" y="322" type="curve" smooth="yes"/>
      <point x="193" y="184"/>
      <point x="267" y="130"/>
      <point x="377" y="130" type="curve" smooth="yes"/>
      <point x="520" y="130"/>
      <point x="549" y="222"/>
      <point x="549" y="222" type="curve"/>
      <point x="510" y="237" type="line"/>
      <point x="510" y="237"/>
      <point x="487" y="171"/>
      <point x="377" y="171" type="curve" smooth="yes"/>
      <point x="298" y="171"/>
      <point x="233" y="213"/>
      <point x="233" y="322" type="curve" smooth="yes"/>
      <point x="233" y="428"/>
      <point x="312" y="467"/>
      <point x="377" y="467" type="curve" smooth="yes"/>
      <point x="432" y="467"/>
      <point x="487" y="444"/>
      <point x="511" y="385" type="curve"/>
      <point x="511" y="385"/>
      <point x="550" y="385"/>
    </contour>
    <contour>
      <point x="382" y="-12" type="curve" smooth="yes"/>
      <point x="570" y="-12"/>
      <point x="716" y="141"/>
      <point x="716" y="329" type="curve" smooth="yes"/>
      <point x="716" y="517"/>
      <point x="570" y="670"/>
      <point x="382" y="670" type="curve" smooth="yes"/>
      <point x="194" y="670"/>
      <point x="48" y="517"/>
      <point x="48" y="329" type="curve" smooth="yes"/>
      <point x="48" y="141"/>
      <point x="194" y="-12"/>
    </contour>
    <contour>
      <point x="382" y="21" type="curve" smooth="yes"/>
      <point x="217" y="21"/>
      <point x="86" y="160"/>
      <point x="86" y="329" type="curve" smooth="yes"/>
      <point x="86" y="498"/>
      <point x="217" y="637"/>
      <point x="382" y="637" type="curve" smooth="yes"/>
      <point x="547" y="637"/>
      <point x="678" y="498"/>
      <point x="678" y="329" type="curve" smooth="yes"/>
      <point x="678" y="160"/>
      <point x="547" y="21"/>
    </contour>
  </outline>
</glyph>
<glyph name="registered" format="2">
  <advance width="386"/>
  <unicode hex="00AE"/>
  <outline>
    <contour>
      <point x="193" y="336" type="curve" smooth="yes"/>
      <point x="291" y="336"/>
      <point x="371" y="416"/>
      <point x="371" y="514" type="curve" smooth="yes"/>
      <point x="371" y="614"/>
      <point x="292" y="693"/>
      <point x="193" y="693" type="curve" smooth="yes"/>
      <point x="93" y="693"/>
      <point x="15" y="614"/>
      <point x="15" y="514" type="curve" smooth="yes"/>
      <point x="15" y="415"/>
      <point x="93" y="336"/>
    </contour>
    <contour>
      <point x="193" y="663" type="curve" smooth="yes"/>
      <point x="274" y="663"/>
      <point x="337" y="598"/>
      <point x="337" y="514" type="curve" smooth="yes"/>
      <point x="337" y="432"/>
      <point x="272" y="366"/>
      <point x="193" y="366" type="curve" smooth="yes"/>
      <point x="112" y="366"/>
      <point x="49" y="431"/>
      <point x="49" y="514" type="curve" smooth="yes"/>
      <point x="49" y="598"/>
      <point x="112" y="663"/>
    </contour>
    <contour>
      <point x="124" y="431" type="line"/>
      <point x="196" y="431" type="line"/>
      <point x="196" y="457" type="line"/>
      <point x="173" y="457" type="line"/>
      <point x="173" y="507" type="line"/>
      <point x="197" y="507" type="line" smooth="yes"/>
      <point x="199" y="507"/>
      <point x="201" y="507"/>
      <point x="203" y="507" type="curve"/>
      <point x="222" y="505"/>
      <point x="232" y="491"/>
      <point x="232" y="465" type="curve" smooth="yes"/>
      <point x="232" y="431" type="line"/>
      <point x="274" y="431" type="line"/>
      <point x="274" y="457" type="line"/>
      <point x="258" y="457" type="line"/>
      <point x="258" y="463" type="line" smooth="yes"/>
      <point x="258" y="485"/>
      <point x="255" y="500"/>
      <point x="249" y="509" type="curve"/>
      <point x="246" y="512"/>
      <point x="242" y="516"/>
      <point x="235" y="519" type="curve"/>
      <point x="250" y="528"/>
      <point x="260" y="543"/>
      <point x="260" y="562" type="curve" smooth="yes"/>
      <point x="260" y="596"/>
      <point x="231" y="614"/>
      <point x="192" y="614" type="curve" smooth="yes"/>
      <point x="124" y="614" type="line"/>
      <point x="124" y="588" type="line"/>
      <point x="144" y="588" type="line"/>
      <point x="144" y="457" type="line"/>
      <point x="124" y="457" type="line"/>
    </contour>
    <contour>
      <point x="173" y="532" type="line"/>
      <point x="173" y="588" type="line"/>
      <point x="191" y="588" type="line" smooth="yes"/>
      <point x="215" y="588"/>
      <point x="230" y="579"/>
      <point x="230" y="561" type="curve" smooth="yes"/>
      <point x="230" y="542"/>
      <point x="215" y="532"/>
      <point x="191" y="532" type="curve" smooth="yes"/>
    </contour>
  </outline>
</glyph>
<glyph name="macron" format="2">
  <advance width="279"/>
  <unicode hex="00AF"/>
  <outline>
    <contour>
      <point x="2" y="595" type="line"/>
      <point x="277" y="595" type="line"/>
      <point x="277" y="641" type="line"/>
      <point x="2" y="641" type="line"/>
    </contour>
  </outline>
</glyph>
<glyph name="degree" format="2">
  <advance width="400"/>
  <unicode hex="00B0"/>
  <outline>
    <contour>
      <point x="200" y="501" type="curve" smooth="yes"/>
      <point x="148" y="501"/>
      <point x="106" y="547"/>
      <point x="106" y="600" type="curve" smooth="yes"/>
      <point x="106" y="652"/>
      <point x="148" y="698"/>
      <point x="200" y="698" type="curve" smooth="yes"/>
      <point x="253" y="698"/>
      <point x="294" y="652"/>
      <point x="294" y="600" type="curve" smooth="yes"/>
      <point x="294" y="547"/>
      <point x="253" y="501"/>
    </contour>
    <contour>
      <point x="200" y="475" type="curve" smooth="yes"/>
      <point x="271" y="475"/>
      <point x="325" y="529"/>
      <point x="325" y="600" type="curve" smooth="yes"/>
      <point x="325" y="669"/>
      <point x="271" y="725"/>
      <point x="200" y="725" type="curve" smooth="yes"/>
      <point x="131" y="725"/>
      <point x="75" y="669"/>
      <point x="75" y="600" type="curve" smooth="yes"/>
      <point x="75" y="529"/>
      <point x="131" y="475"/>
    </contour>
  </outline>
</glyph>
<glyph name="threesuperior" format="2">
  <advance width="300"/>
  <unicode hex="00B3"/>
  <outline>
    <contour>
      <point x="29" y="421" type="line"/>
      <point x="29" y="351"/>
      <point x="76" y="296"/>
      <point x="160" y="296" type="curve" smooth="yes"/>
      <point x="231" y="296"/>
      <point x="288" y="345"/>
      <point x="288" y="417" type="curve" smooth="yes"/>
      <point x="288" y="468"/>
      <point x="260" y="504"/>
      <point x="209" y="519" type="curve"/>
      <point x="209" y="521" type="line"/>
      <point x="255" y="537"/>
      <point x="286" y="570"/>
      <point x="286" y="618" type="curve" smooth="yes"/>
      <point x="286" y="676"/>
      <point x="230" y="728"/>
      <point x="160" y="728" type="curve" smooth="yes"/>
      <point x="85" y="728"/>
      <point x="36" y="679"/>
      <point x="36" y="602" type="curve"/>
      <point x="75" y="602" type="line"/>
      <point x="75" y="649"/>
      <point x="103" y="696"/>
      <point x="160" y="696" type="curve" smooth="yes"/>
      <point x="204" y="696"/>
      <point x="247" y="669"/>
      <point x="247" y="615" type="curve" smooth="yes"/>
      <point x="247" y="576"/>
      <point x="213" y="544"/>
      <point x="179" y="538" type="curve" smooth="yes"/>
      <point x="164" y="535"/>
      <point x="149" y="535"/>
      <point x="135" y="535" type="curve"/>
      <point x="135" y="503" type="line"/>
      <point x="144" y="503"/>
      <point x="155" y="503"/>
      <point x="169" y="502" type="curve" smooth="yes"/>
      <point x="212" y="499"/>
      <point x="249" y="470"/>
      <point x="249" y="415" type="curve" smooth="yes"/>
      <point x="249" y="363"/>
      <point x="209" y="328"/>
      <point x="160" y="328" type="curve" smooth="yes"/>
      <point x="102" y="328"/>
      <point x="68" y="366"/>
      <point x="68" y="421" type="curve"/>
    </contour>
  </outline>
</glyph>
<glyph name="acute" format="2">
  <advance width="278"/>
  <unicode hex="00B4"/>
  <outline>
    <contour>
      <point x="126" y="595" type="line"/>
      <point x="264" y="734" type="line"/>
      <point x="187" y="734" type="line"/>
      <point x="76" y="595" type="line"/>
    </contour>
  </outline>
</glyph>
<glyph name="paragraph" format="2">
  <advance width="562"/>
  <unicode hex="00B6"/>
  <outline>
    <contour>
      <point x="211" y="0" type="line"/>
      <point x="519" y="0" type="line"/>
      <point x="519" y="46" type="line"/>
      <point x="443" y="46" type="line"/>
      <point x="443" y="455" type="line"/>
      <point x="519" y="455" type="line"/>
      <point x="519" y="501" type="line"/>
      <point x="214" y="501" type="line" smooth="yes"/>
      <point x="112" y="501"/>
      <point x="34" y="438"/>
      <point x="34" y="349" type="curve" smooth="yes"/>
      <point x="34" y="252"/>
      <point x="109" y="192"/>
      <point x="211" y="192" type="curve" smooth="yes"/>
      <point x="240" y="192"/>
      <point x="274" y="192"/>
      <point x="291" y="193" type="curve"/>
      <point x="291" y="44" type="line"/>
      <point x="211" y="44" type="line"/>
    </contour>
    <contour>
      <point x="338" y="44" type="line"/>
      <point x="338" y="457" type="line"/>
      <point x="396" y="457" type="line"/>
      <point x="396" y="44" type="line"/>
    </contour>
  </outline>
</glyph>
<glyph name="periodcentered" format="2">
  <advance width="500"/>
  <unicode hex="00B7"/>
  <outline>
    <contour>
      <point x="281" y="42" type="curve" smooth="yes"/>
      <point x="281" y="67"/>
      <point x="263" y="82"/>
      <point x="242" y="82" type="curve" smooth="yes"/>
      <point x="218" y="82"/>
      <point x="202" y="67"/>
      <point x="202" y="42" type="curve" smooth="yes"/>
      <point x="202" y="10"/>
      <point x="218" y="0"/>
      <point x="242" y="0" type="curve" smooth="yes"/>
      <point x="265" y="0"/>
      <point x="281" y="10"/>
    </contour>
  </outline>
</glyph>
<glyph name="cedilla" format="2">
  <advance width="278"/>
  <unicode hex="00B8"/>
  <outline>
    <contour>
      <point x="49" y="-198" type="line"/>
      <point x="81" y="-207"/>
      <point x="125" y="-207"/>
      <point x="158" y="-201" type="curve" smooth="yes"/>
      <point x="201" y="-194"/>
      <point x="247" y="-160"/>
      <point x="238" y="-109" type="curve" smooth="yes"/>
      <point x="229" y="-58"/>
      <point x="189" y="-38"/>
      <point x="161" y="-43" type="curve" smooth="yes"/>
      <point x="146" y="-46"/>
      <point x="137" y="-49"/>
      <point x="127" y="-55" type="curve"/>
      <point x="124" y="-54" type="line"/>
      <point x="151" y="0" type="line"/>
      <point x="120" y="0" type="line"/>
      <point x="75" y="-88" type="line"/>
      <point x="93" y="-98" type="line"/>
      <point x="120" y="-81"/>
      <point x="192" y="-66"/>
      <point x="200" y="-111" type="curve" smooth="yes"/>
      <point x="206" y="-148"/>
      <point x="156" y="-168"/>
      <point x="128" y="-171" type="curve" smooth="yes"/>
      <point x="110" y="-173"/>
      <point x="85" y="-169"/>
      <point x="68" y="-166" type="curve"/>
    </contour>
  </outline>
</glyph>
<glyph name="ordmasculine" format="2">
  <advance width="352"/>
  <unicode hex="00BA"/>
  <outline>
    <contour>
      <point x="62" y="305" type="line"/>
      <point x="290" y="305" type="line"/>
      <point x="290" y="342" type="line"/>
      <point x="62" y="342" type="line"/>
    </contour>
    <contour>
      <point x="177" y="409" type="curve" smooth="yes"/>
      <point x="254" y="409"/>
      <point x="305" y="469"/>
      <point x="305" y="540" type="curve" smooth="yes"/>
      <point x="305" y="612"/>
      <point x="254" y="671"/>
      <point x="177" y="671" type="curve" smooth="yes"/>
      <point x="99" y="671"/>
      <point x="47" y="611"/>
      <point x="47" y="540" type="curve" smooth="yes"/>
      <point x="47" y="469"/>
      <point x="99" y="409"/>
    </contour>
    <contour>
      <point x="177" y="443" type="curve" smooth="yes"/>
      <point x="124" y="443"/>
      <point x="88" y="484"/>
      <point x="88" y="540" type="curve" smooth="yes"/>
      <point x="88" y="596"/>
      <point x="124" y="637"/>
      <point x="177" y="637" type="curve" smooth="yes"/>
      <point x="229" y="637"/>
      <point x="264" y="596"/>
      <point x="264" y="540" type="curve" smooth="yes"/>
      <point x="264" y="484"/>
      <point x="229" y="443"/>
    </contour>
  </outline>
</glyph>
<glyph name="onequarter" format="2">
  <advance width="339"/>
  <unicode hex="00BC"/>
  <outline>
    <contour>
      <point x="178" y="374" type="line"/>
      <point x="178" y="399" type="line"/>
      <point x="132" y="399" type="line"/>
      <point x="132" y="750" type="line"/>
      <point x="102" y="750" type="line"/>
      <point x="58" y="734" type="line"/>
      <point x="58" y="710" type="line"/>
      <point x="102" y="719" type="line"/>
      <point x="102" y="399" type="line"/>
      <point x="56" y="399" type="line"/>
      <point x="56" y="374" type="line"/>
    </contour>
    <contour>
      <point x="133" y="-12" type="line"/>
      <point x="329" y="311" type="line"/>
      <point x="522" y="628" type="line"/>
      <point x="489" y="648" type="line"/>
      <point x="296" y="331" type="line"/>
      <point x="100" y="8" type="line"/>
    </contour>
    <contour>
      <point x="474" y="0" type="line"/>
      <point x="228" y="0" type="line"/>
      <point x="228" y="49" type="line"/>
      <point x="325" y="49" type="line"/>
      <point x="325" y="202" type="line"/>
      <point x="13" y="202" type="line"/>
      <point x="13" y="249" type="line"/>
      <point x="324" y="750" type="line"/>
      <point x="381" y="750" type="line"/>
      <point x="381" y="251" type="line"/>
      <point x="472" y="251" type="line"/>
      <point x="472" y="202" type="line"/>
      <point x="381" y="202" type="line"/>
      <point x="381" y="49" type="line"/>
      <point x="474" y="49" type="line"/>
    </contour>
    <contour>
      <point x="323" y="651" type="line"/>
      <point x="75" y="251" type="line"/>
      <point x="325" y="251" type="line"/>
      <point x="325" y="651" type="line"/>
    </contour>
  </outline>
</glyph>
<glyph name="onehalf" format="2">
  <advance width="339"/>
  <unicode hex="00BD"/>
  <outline>
    <contour>
      <point x="307" y="0" type="line"/>
      <point x="307" y="50" type="line"/>
      <point x="216" y="50" type="line"/>
      <point x="216" y="750" type="line"/>
      <point x="155" y="750" type="line"/>
      <point x="67" y="718" type="line"/>
      <point x="67" y="670" type="line"/>
      <point x="155" y="689" type="line"/>
      <point x="155" y="50" type="line"/>
      <point x="64" y="50" type="line"/>
      <point x="64" y="0" type="line"/>
    </contour>
    <contour>
      <point x="133" y="-12" type="line"/>
      <point x="329" y="311" type="line"/>
      <point x="522" y="628" type="line"/>
      <point x="489" y="648" type="line"/>
      <point x="296" y="331" type="line"/>
      <point x="100" y="8" type="line"/>
    </contour>
    <contour>
      <point x="484" y="0" type="line"/>
      <point x="49" y="0" type="line"/>
      <point x="49" y="54" type="line"/>
      <point x="305" y="362" type="line" smooth="yes"/>
      <point x="313" y="371"/>
      <point x="323" y="382"/>
      <point x="332" y="394" type="curve" smooth="yes"/>
      <point x="371" y="445"/>
      <point x="404" y="485"/>
      <point x="408" y="552" type="curve"/>
      <point x="408" y="556"/>
      <point x="408" y="559"/>
      <point x="408" y="563" type="curve" smooth="yes"/>
      <point x="408" y="655"/>
      <point x="350" y="702"/>
      <point x="262" y="702" type="curve" smooth="yes"/>
      <point x="172" y="702"/>
      <point x="103" y="635"/>
      <point x="103" y="549" type="curve" smooth="yes"/>
      <point x="101" y="501" type="line"/>
      <point x="50" y="501" type="line"/>
      <point x="50" y="541" type="line" smooth="yes"/>
      <point x="50" y="664"/>
      <point x="135" y="750"/>
      <point x="261" y="750" type="curve" smooth="yes"/>
      <point x="314" y="750"/>
      <point x="361" y="734"/>
      <point x="402" y="702" type="curve" smooth="yes"/>
      <point x="443" y="669"/>
      <point x="463" y="624"/>
      <point x="463" y="567" type="curve" smooth="yes"/>
      <point x="463" y="483"/>
      <point x="410" y="403"/>
      <point x="354" y="333" type="curve" smooth="yes"/>
      <point x="331" y="306"/>
      <point x="310" y="282"/>
      <point x="290" y="259" type="curve" smooth="yes"/>
      <point x="120" y="54" type="line"/>
      <point x="430" y="54" type="line"/>
      <point x="430" y="181" type="line"/>
      <point x="484" y="181" type="line"/>
    </contour>
  </outline>
</glyph>
<glyph name="threequarters" format="2">
  <advance width="516"/>
  <unicode hex="00BE"/>
  <outline>
    <contour>
      <point x="56" y="587" type="line"/>
      <point x="109" y="577" type="line"/>
    </contour>
    <contour>
      <point x="43" y="167" type="line"/>
      <point x="61" y="69"/>
      <point x="135" y="-1"/>
      <point x="251" y="-1" type="curve" smooth="yes"/>
      <point x="366" y="-1"/>
      <point x="456" y="83"/>
      <point x="456" y="209" type="curve" smooth="yes"/>
      <point x="456" y="296"/>
      <point x="411" y="359"/>
      <point x="329" y="389" type="curve"/>
      <point x="403" y="417"/>
      <point x="452" y="475"/>
      <point x="452" y="558" type="curve" smooth="yes"/>
      <point x="452" y="660"/>
      <point x="364" y="750"/>
      <point x="251" y="750" type="curve" smooth="yes"/>
      <point x="148" y="750"/>
      <point x="76" y="688"/>
      <point x="56" y="587" type="curve"/>
      <point x="109" y="577" type="line"/>
      <point x="123" y="643"/>
      <point x="167" y="700"/>
      <point x="251" y="700" type="curve" smooth="yes"/>
      <point x="331" y="700"/>
      <point x="396" y="648"/>
      <point x="396" y="554" type="curve" smooth="yes"/>
      <point x="396" y="484"/>
      <point x="345" y="429"/>
      <point x="280" y="415" type="curve" smooth="yes"/>
      <point x="257" y="410"/>
      <point x="233" y="409"/>
      <point x="210" y="409" type="curve"/>
      <point x="210" y="362" type="line"/>
      <point x="224" y="362"/>
      <point x="244" y="361"/>
      <point x="265" y="359" type="curve" smooth="yes"/>
      <point x="343" y="351"/>
      <point x="400" y="300"/>
      <point x="400" y="206" type="curve" smooth="yes"/>
      <point x="400" y="114"/>
      <point x="339" y="49"/>
      <point x="251" y="49" type="curve" smooth="yes"/>
      <point x="160" y="49"/>
      <point x="106" y="105"/>
      <point x="94" y="183" type="curve"/>
    </contour>
    <contour>
      <point x="43" y="167" type="line"/>
      <point x="94" y="183" type="line"/>
    </contour>
    <contour>
      <point x="133" y="-12" type="line"/>
      <point x="329" y="311" type="line"/>
      <point x="522" y="628" type="line"/>
      <point x="489" y="648" type="line"/>
      <point x="296" y="331" type="line"/>
      <point x="100" y="8" type="line"/>
    </contour>
    <contour>
      <point x="474" y="0" type="line"/>
      <point x="228" y="0" type="line"/>
      <point x="228" y="49" type="line"/>
      <point x="325" y="49" type="line"/>
      <point x="325" y="202" type="line"/>
      <point x="13" y="202" type="line"/>
      <point x="13" y="249" type="line"/>
      <point x="324" y="750" type="line"/>
      <point x="381" y="750" type="line"/>
      <point x="381" y="251" type="line"/>
      <point x="472" y="251" type="line"/>
      <point x="472" y="202" type="line"/>
      <point x="381" y="202" type="line"/>
      <point x="381" y="49" type="line"/>
      <point x="474" y="49" type="line"/>
    </contour>
    <contour>
      <point x="323" y="651" type="line"/>
      <point x="75" y="251" type="line"/>
      <point x="325" y="251" type="line"/>
      <point x="325" y="651" type="line"/>
    </contour>
  </outline>
</glyph>
<glyph name="Agrave" format="2">
  <advance width="769"/>
  <unicode hex="00C0"/>
  <outline>
    <contour>
      <point x="254" y="0" type="line"/>
      <point x="254" y="50" type="line"/>
      <point x="174" y="50" type="line"/>
      <point x="238" y="237" type="line"/>
      <point x="529" y="237" type="line"/>
      <point x="593" y="50" type="line"/>
      <point x="513" y="50" type="line"/>
      <point x="513" y="0" type="line"/>
      <point x="749" y="0" type="line"/>
      <point x="749" y="50" type="line"/>
      <point x="661" y="50" type="line"/>
      <point x="443" y="702" type="line"/>
      <point x="508" y="702" type="line"/>
      <point x="508" y="750" type="line"/>
      <point x="262" y="750" type="line"/>
      <point x="262" y="702" type="line"/>
      <point x="327" y="702" type="line"/>
      <point x="108" y="50" type="line"/>
      <point x="20" y="50" type="line"/>
      <point x="20" y="0" type="line"/>
    </contour>
    <contour>
      <point x="255" y="285" type="line"/>
      <point x="383" y="698" type="line"/>
      <point x="385" y="698" type="line"/>
      <point x="512" y="285" type="line"/>
    </contour>
    <contour>
      <point x="367" y="860" type="line"/>
      <point x="417" y="860" type="line"/>
      <point x="306" y="999" type="line"/>
      <point x="229" y="999" type="line"/>
    </contour>
  </outline>
</glyph>
<glyph name="Aacute" format="2">
  <advance width="769"/>
  <unicode hex="00C1"/>
  <outline>
    <contour>
      <point x="254" y="0" type="line"/>
      <point x="254" y="50" type="line"/>
      <point x="174" y="50" type="line"/>
      <point x="238" y="237" type="line"/>
      <point x="529" y="237" type="line"/>
      <point x="593" y="50" type="line"/>
      <point x="513" y="50" type="line"/>
      <point x="513" y="0" type="line"/>
      <point x="749" y="0" type="line"/>
      <point x="749" y="50" type="line"/>
      <point x="661" y="50" type="line"/>
      <point x="443" y="702" type="line"/>
      <point x="508" y="702" type="line"/>
      <point x="508" y="750" type="line"/>
      <point x="262" y="750" type="line"/>
      <point x="262" y="702" type="line"/>
      <point x="327" y="702" type="line"/>
      <point x="108" y="50" type="line"/>
      <point x="20" y="50" type="line"/>
      <point x="20" y="0" type="line"/>
    </contour>
    <contour>
      <point x="255" y="285" type="line"/>
      <point x="383" y="698" type="line"/>
      <point x="385" y="698" type="line"/>
      <point x="512" y="285" type="line"/>
    </contour>
    <contour>
      <point x="390" y="866" type="line"/>
      <point x="528" y="1005" type="line"/>
      <point x="451" y="1005" type="line"/>
      <point x="340" y="866" type="line"/>
    </contour>
  </outline>
</glyph>
<glyph name="Acircumflex" format="2">
  <advance width="769"/>
  <unicode hex="00C2"/>
  <outline>
    <contour>
      <point x="254" y="0" type="line"/>
      <point x="254" y="50" type="line"/>
      <point x="174" y="50" type="line"/>
      <point x="238" y="237" type="line"/>
      <point x="529" y="237" type="line"/>
      <point x="593" y="50" type="line"/>
      <point x="513" y="50" type="line"/>
      <point x="513" y="0" type="line"/>
      <point x="749" y="0" type="line"/>
      <point x="749" y="50" type="line"/>
      <point x="661" y="50" type="line"/>
      <point x="443" y="702" type="line"/>
      <point x="508" y="702" type="line"/>
      <point x="508" y="750" type="line"/>
      <point x="262" y="750" type="line"/>
      <point x="262" y="702" type="line"/>
      <point x="327" y="702" type="line"/>
      <point x="108" y="50" type="line"/>
      <point x="20" y="50" type="line"/>
      <point x="20" y="0" type="line"/>
    </contour>
    <contour>
      <point x="255" y="285" type="line"/>
      <point x="383" y="698" type="line"/>
      <point x="385" y="698" type="line"/>
      <point x="512" y="285" type="line"/>
    </contour>
    <contour>
      <point x="277" y="836" type="line"/>
      <point x="386" y="937" type="line"/>
      <point x="495" y="836" type="line"/>
      <point x="530" y="866" type="line"/>
      <point x="386" y="1000" type="line"/>
      <point x="242" y="866" type="line"/>
    </contour>
  </outline>
</glyph>
<glyph name="Atilde" format="2">
  <advance width="769"/>
  <unicode hex="00C3"/>
  <outline>
    <contour>
      <point x="254" y="0" type="line"/>
      <point x="254" y="50" type="line"/>
      <point x="174" y="50" type="line"/>
      <point x="238" y="237" type="line"/>
      <point x="529" y="237" type="line"/>
      <point x="593" y="50" type="line"/>
      <point x="513" y="50" type="line"/>
      <point x="513" y="0" type="line"/>
      <point x="749" y="0" type="line"/>
      <point x="749" y="50" type="line"/>
      <point x="661" y="50" type="line"/>
      <point x="443" y="702" type="line"/>
      <point x="508" y="702" type="line"/>
      <point x="508" y="750" type="line"/>
      <point x="262" y="750" type="line"/>
      <point x="262" y="702" type="line"/>
      <point x="327" y="702" type="line"/>
      <point x="108" y="50" type="line"/>
      <point x="20" y="50" type="line"/>
      <point x="20" y="0" type="line"/>
    </contour>
    <contour>
      <point x="255" y="285" type="line"/>
      <point x="383" y="698" type="line"/>
      <point x="385" y="698" type="line"/>
      <point x="512" y="285" type="line"/>
    </contour>
    <contour>
      <point x="453" y="854" type="curve" smooth="yes"/>
      <point x="496" y="854"/>
      <point x="536" y="903"/>
      <point x="538" y="960" type="curve"/>
      <point x="493" y="966" type="line"/>
      <point x="489" y="933"/>
      <point x="474" y="903"/>
      <point x="450" y="903" type="curve" smooth="yes"/>
      <point x="436" y="903"/>
      <point x="425" y="910"/>
      <point x="403" y="928" type="curve" smooth="yes"/>
      <point x="379" y="948"/>
      <point x="354" y="967"/>
      <point x="315" y="967" type="curve" smooth="yes"/>
      <point x="272" y="967"/>
      <point x="232" y="923"/>
      <point x="230" y="866" type="curve"/>
      <point x="275" y="860" type="line"/>
      <point x="279" y="893"/>
      <point x="294" y="918"/>
      <point x="318" y="918" type="curve" smooth="yes"/>
      <point x="332" y="918"/>
      <point x="343" y="911"/>
      <point x="365" y="893" type="curve" smooth="yes"/>
      <point x="389" y="873"/>
      <point x="414" y="854"/>
    </contour>
  </outline>
</glyph>
<glyph name="Eacute" format="2">
  <advance width="623"/>
  <unicode hex="00C9"/>
  <outline>
    <contour>
      <point x="188" y="427" type="line"/>
      <point x="188" y="700" type="line"/>
      <point x="504" y="700" type="line"/>
      <point x="504" y="585" type="line"/>
      <point x="554" y="585" type="line"/>
      <point x="554" y="750" type="line"/>
      <point x="52" y="750" type="line"/>
      <point x="52" y="700" type="line"/>
      <point x="127" y="700" type="line"/>
      <point x="127" y="50" type="line"/>
      <point x="52" y="50" type="line"/>
      <point x="52" y="0" type="line"/>
      <point x="554" y="0" type="line"/>
      <point x="554" y="166" type="line"/>
      <point x="504" y="166" type="line"/>
      <point x="504" y="50" type="line"/>
      <point x="188" y="50" type="line"/>
      <point x="188" y="375" type="line"/>
      <point x="453" y="375" type="line"/>
      <point x="453" y="427" type="line"/>
    </contour>
    <contour>
      <point x="259" y="866" type="line"/>
      <point x="397" y="1005" type="line"/>
      <point x="320" y="1005" type="line"/>
      <point x="209" y="866" type="line"/>
    </contour>
  </outline>
</glyph>
<glyph name="Iacute" format="2">
  <advance width="316"/>
  <unicode hex="00CD"/>
  <outline>
    <contour>
      <point x="53" y="50" type="line"/>
      <point x="53" y="0" type="line"/>
      <point x="263" y="0" type="line"/>
      <point x="263" y="50" type="line"/>
      <point x="188" y="50" type="line"/>
      <point x="188" y="700" type="line"/>
      <point x="263" y="700" type="line"/>
      <point x="263" y="750" type="line"/>
      <point x="53" y="750" type="line"/>
      <point x="53" y="700" type="line"/>
      <point x="128" y="700" type="line"/>
      <point x="128" y="50" type="line"/>
    </contour>
    <contour>
      <point x="125" y="860" type="line"/>
      <point x="263" y="999" type="line"/>
      <point x="186" y="999" type="line"/>
      <point x="75" y="860" type="line"/>
    </contour>
  </outline>
</glyph>
<glyph name="Icircumflex" format="2">
  <advance width="316"/>
  <unicode hex="00CE"/>
  <outline>
    <contour>
      <point x="53" y="50" type="line"/>
      <point x="53" y="0" type="line"/>
      <point x="263" y="0" type="line"/>
      <point x="263" y="50" type="line"/>
      <point x="188" y="50" type="line"/>
      <point x="188" y="700" type="line"/>
      <point x="263" y="700" type="line"/>
      <point x="263" y="750" type="line"/>
      <point x="53" y="750" type="line"/>
      <point x="53" y="700" type="line"/>
      <point x="128" y="700" type="line"/>
      <point x="128" y="50" type="line"/>
    </contour>
    <contour>
      <point x="50" y="830" type="line"/>
      <point x="159" y="931" type="line"/>
      <point x="268" y="830" type="line"/>
      <point x="303" y="860" type="line"/>
      <point x="159" y="994" type="line"/>
      <point x="15" y="860" type="line"/>
    </contour>
  </outline>
</glyph>
<glyph name="Eth" format="2">
  <advance width="790"/>
  <unicode hex="00D0"/>
  <outline>
    <contour>
      <point x="52" y="0" type="line"/>
      <point x="352" y="0" type="line" smooth="yes"/>
      <point x="407" y="0"/>
      <point x="458" y="10"/>
      <point x="505" y="29" type="curve" smooth="yes"/>
      <point x="551" y="48"/>
      <point x="591" y="75"/>
      <point x="624" y="109" type="curve" smooth="yes"/>
      <point x="657" y="143"/>
      <point x="683" y="183"/>
      <point x="702" y="230" type="curve" smooth="yes"/>
      <point x="721" y="277"/>
      <point x="730" y="328"/>
      <point x="730" y="383" type="curve" smooth="yes"/>
      <point x="730" y="479"/>
      <point x="692" y="573"/>
      <point x="622" y="643" type="curve" smooth="yes"/>
      <point x="611" y="654"/>
      <point x="599" y="665"/>
      <point x="588" y="674" type="curve" smooth="yes"/>
      <point x="541" y="711"/>
      <point x="494" y="733"/>
      <point x="446" y="740" type="curve" smooth="yes"/>
      <point x="398" y="746"/>
      <point x="348" y="749"/>
      <point x="295" y="749" type="curve" smooth="yes"/>
      <point x="289" y="749" type="line" smooth="yes"/>
      <point x="287" y="749"/>
      <point x="285" y="749"/>
      <point x="284" y="750" type="curve"/>
      <point x="52" y="750" type="line"/>
      <point x="52" y="700" type="line"/>
      <point x="140" y="700" type="line"/>
      <point x="140" y="400" type="line"/>
      <point x="52" y="400" type="line"/>
      <point x="52" y="352" type="line"/>
      <point x="140" y="352" type="line"/>
      <point x="140" y="50" type="line"/>
      <point x="52" y="50" type="line"/>
    </contour>
    <contour>
      <point x="201" y="352" type="line"/>
      <point x="201" y="700" type="line"/>
      <point x="366" y="699" type="line" smooth="yes"/>
      <point x="454" y="696"/>
      <point x="526" y="666"/>
      <point x="583" y="608" type="curve" smooth="yes"/>
      <point x="639" y="549"/>
      <point x="667" y="474"/>
      <point x="667" y="383" type="curve" smooth="yes"/>
      <point x="667" y="285"/>
      <point x="638" y="205"/>
      <point x="579" y="143" type="curve" smooth="yes"/>
      <point x="520" y="81"/>
      <point x="453" y="50"/>
      <point x="377" y="50" type="curve" smooth="yes"/>
      <point x="201" y="50" type="line"/>
    </contour>
    <contour>
      <point x="201" y="400" type="line"/>
      <point x="201" y="352" type="line"/>
      <point x="376" y="352" type="line"/>
      <point x="376" y="400" type="line"/>
    </contour>
  </outline>
</glyph>
<glyph name="Odieresis" format="2">
  <advance width="812"/>
  <unicode hex="00D6"/>
  <outline>
    <contour>
      <point x="52" y="342" type="line"/>
      <point x="43" y="445"/>
      <point x="73" y="536"/>
      <point x="141" y="617" type="curve" smooth="yes"/>
      <point x="208" y="698"/>
      <point x="295" y="743"/>
      <point x="400" y="752" type="curve" smooth="yes"/>
      <point x="506" y="761"/>
      <point x="599" y="732"/>
      <point x="680" y="664" type="curve" smooth="yes"/>
      <point x="762" y="597"/>
      <point x="806" y="511"/>
      <point x="815" y="408" type="curve" smooth="yes"/>
      <point x="824" y="304"/>
      <point x="795" y="212"/>
      <point x="728" y="132" type="curve" smooth="yes"/>
      <point x="659" y="51"/>
      <point x="573" y="6"/>
      <point x="467" y="-3" type="curve" smooth="yes"/>
      <point x="361" y="-12"/>
      <point x="268" y="17"/>
      <point x="187" y="84" type="curve" smooth="yes"/>
      <point x="106" y="152"/>
      <point x="61" y="237"/>
      <point x="52" y="341" type="curve"/>
    </contour>
    <contour>
      <point x="114" y="347" type="line"/>
      <point x="123" y="256"/>
      <point x="160" y="181"/>
      <point x="227" y="124" type="curve" smooth="yes"/>
      <point x="294" y="66"/>
      <point x="372" y="41"/>
      <point x="462" y="49" type="curve" smooth="yes"/>
      <point x="552" y="57"/>
      <point x="626" y="96"/>
      <point x="681" y="164" type="curve" smooth="yes"/>
      <point x="737" y="231"/>
      <point x="761" y="311"/>
      <point x="754" y="402" type="curve" smooth="yes"/>
      <point x="746" y="493"/>
      <point x="708" y="568"/>
      <point x="641" y="625" type="curve" smooth="yes"/>
      <point x="574" y="682"/>
      <point x="495" y="708"/>
      <point x="404" y="700" type="curve" smooth="yes"/>
      <point x="315" y="693"/>
      <point x="241" y="654"/>
      <point x="186" y="586" type="curve" smooth="yes"/>
      <point x="131" y="516"/>
      <point x="106" y="437"/>
      <point x="114" y="346" type="curve"/>
    </contour>
    <contour>
      <point x="284" y="878" type="line"/>
      <point x="349" y="878" type="line"/>
      <point x="349" y="943" type="line"/>
      <point x="284" y="943" type="line"/>
    </contour>
    <contour>
      <point x="463" y="878" type="line"/>
      <point x="528" y="878" type="line"/>
      <point x="528" y="943" type="line"/>
      <point x="463" y="943" type="line"/>
    </contour>
    <contour>
      <point x="497" y="860" type="curve" smooth="yes"/>
      <point x="525" y="860"/>
      <point x="546" y="883"/>
      <point x="546" y="911" type="curve" smooth="yes"/>
      <point x="546" y="939"/>
      <point x="525" y="962"/>
      <point x="497" y="962" type="curve" smooth="yes"/>
      <point x="469" y="962"/>
      <point x="448" y="939"/>
      <point x="448" y="911" type="curve" smooth="yes"/>
      <point x="448" y="883"/>
      <point x="469" y="860"/>
    </contour>
    <contour>
      <point x="317" y="860" type="curve" smooth="yes"/>
      <point x="345" y="860"/>
      <point x="366" y="883"/>
      <point x="366" y="911" type="curve" smooth="yes"/>
      <point x="366" y="939"/>
      <point x="345" y="962"/>
      <point x="317" y="962" type="curve" smooth="yes"/>
      <point x="289" y="962"/>
      <point x="268" y="939"/>
      <point x="268" y="911" type="curve" smooth="yes"/>
      <point x="268" y="883"/>
      <point x="289" y="860"/>
    </contour>
  </outline>
</glyph>
<glyph name="germandbls" format="2">
  <advance width="446"/>
  <unicode hex="00DF"/>
  <outline>
    <contour>
      <point x="367" y="0" type="line" smooth="yes"/>
      <point x="457" y="0"/>
      <point x="516" y="51"/>
      <point x="516" y="141" type="curve" smooth="yes"/>
      <point x="516" y="216"/>
      <point x="480" y="272"/>
      <point x="417" y="308" type="curve" smooth="yes"/>
      <point x="358" y="342"/>
      <point x="337" y="351"/>
      <point x="337" y="381" type="curve" smooth="yes"/>
      <point x="337" y="408"/>
      <point x="344" y="425"/>
      <point x="381" y="461" type="curve" smooth="yes"/>
      <point x="427" y="506"/>
      <point x="446" y="551"/>
      <point x="446" y="610" type="curve" smooth="yes"/>
      <point x="446" y="693"/>
      <point x="371" y="755"/>
      <point x="288" y="755" type="curve" smooth="yes"/>
      <point x="232" y="755"/>
      <point x="176" y="733"/>
      <point x="147" y="689" type="curve" smooth="yes"/>
      <point x="130" y="662"/>
      <point x="119" y="627"/>
      <point x="119" y="583" type="curve" smooth="yes"/>
      <point x="119" y="398" type="line"/>
      <point x="42" y="398" type="line"/>
      <point x="42" y="351" type="line"/>
      <point x="119" y="351" type="line"/>
      <point x="119" y="47" type="line"/>
      <point x="48" y="47" type="line"/>
      <point x="48" y="0" type="line"/>
      <point x="171" y="0" type="line"/>
      <point x="171" y="589" type="line" smooth="yes"/>
      <point x="171" y="616"/>
      <point x="178" y="640"/>
      <point x="188" y="659" type="curve" smooth="yes"/>
      <point x="205" y="689"/>
      <point x="244" y="707"/>
      <point x="281" y="707" type="curve" smooth="yes"/>
      <point x="335" y="707"/>
      <point x="394" y="665"/>
      <point x="394" y="610" type="curve" smooth="yes"/>
      <point x="394" y="569"/>
      <point x="384" y="533"/>
      <point x="341" y="492" type="curve" smooth="yes"/>
      <point x="297" y="448"/>
      <point x="286" y="417"/>
      <point x="286" y="381" type="curve" smooth="yes"/>
      <point x="286" y="319"/>
      <point x="321" y="302"/>
      <point x="389" y="265" type="curve" smooth="yes"/>
      <point x="442" y="237"/>
      <point x="465" y="194"/>
      <point x="465" y="141" type="curve" smooth="yes"/>
      <point x="465" y="76"/>
      <point x="428" y="45"/>
      <point x="367" y="45" type="curve" smooth="yes"/>
      <point x="267" y="45" type="line"/>
      <point x="267" y="0" type="line"/>
    </contour>
  </outline>
</glyph>
<glyph name="aring" format="2">
  <advance width="642"/>
  <unicode hex="00E5"/>
  <outline>
    <contour>
      <point x="610" y="472" type="line"/>
      <point x="487" y="472" type="line"/>
      <point x="486" y="374" type="line"/>
      <point x="479" y="384"/>
      <point x="471" y="394"/>
      <point x="463" y="404" type="curve"/>
      <point x="422" y="450"/>
      <point x="367" y="473"/>
      <point x="296" y="473" type="curve" smooth="yes"/>
      <point x="225" y="473"/>
      <point x="166" y="450"/>
      <point x="119" y="403" type="curve" smooth="yes"/>
      <point x="72" y="357"/>
      <point x="49" y="301"/>
      <point x="49" y="234" type="curve" smooth="yes"/>
      <point x="48" y="167"/>
      <point x="71" y="111"/>
      <point x="118" y="67" type="curve" smooth="yes"/>
      <point x="165" y="22"/>
      <point x="224" y="0"/>
      <point x="296" y="0" type="curve" smooth="yes"/>
      <point x="367" y="0"/>
      <point x="422" y="22"/>
      <point x="463" y="67" type="curve" smooth="yes"/>
      <point x="471" y="76"/>
      <point x="478" y="85"/>
      <point x="484" y="95" type="curve"/>
      <point x="485" y="0" type="line"/>
      <point x="610" y="0" type="line"/>
      <point x="610" y="50" type="line"/>
      <point x="544" y="50" type="line"/>
      <point x="544" y="425" type="line"/>
      <point x="609" y="425" type="line"/>
    </contour>
    <contour>
      <point x="484" y="236" type="curve" smooth="yes"/>
      <point x="484" y="235" type="line" smooth="yes"/>
      <point x="484" y="120"/>
      <point x="409" y="54"/>
      <point x="298" y="54" type="curve" smooth="yes"/>
      <point x="241" y="54"/>
      <point x="196" y="70"/>
      <point x="161" y="101" type="curve" smooth="yes"/>
      <point x="126" y="133"/>
      <point x="109" y="177"/>
      <point x="109" y="234" type="curve" smooth="yes"/>
      <point x="109" y="291"/>
      <point x="126" y="336"/>
      <point x="160" y="369" type="curve" smooth="yes"/>
      <point x="195" y="402"/>
      <point x="240" y="418"/>
      <point x="296" y="418" type="curve" smooth="yes"/>
      <point x="410" y="418"/>
      <point x="484" y="350"/>
    </contour>
    <contour>
      <point x="484" y="95" type="line"/>
      <point x="486" y="374" type="line"/>
    </contour>
    <contour>
      <point x="327" y="575" type="curve" smooth="yes"/>
      <point x="372" y="575"/>
      <point x="412" y="615"/>
      <point x="412" y="661" type="curve" smooth="yes"/>
      <point x="412" y="707"/>
      <point x="372" y="746"/>
      <point x="327" y="746" type="curve" smooth="yes"/>
      <point x="280" y="746"/>
      <point x="241" y="707"/>
      <point x="241" y="661" type="curve" smooth="yes"/>
      <point x="241" y="615"/>
      <point x="280" y="575"/>
    </contour>
    <contour>
      <point x="327" y="606" type="curve" smooth="yes"/>
      <point x="295" y="606"/>
      <point x="272" y="630"/>
      <point x="272" y="661" type="curve" smooth="yes"/>
      <point x="272" y="691"/>
      <point x="295" y="715"/>
      <point x="327" y="715" type="curve" smooth="yes"/>
      <point x="356" y="715"/>
      <point x="381" y="691"/>
      <point x="381" y="661" type="curve" smooth="yes"/>
      <point x="381" y="630"/>
      <point x="356" y="606"/>
    </contour>
  </outline>
</glyph>
<glyph name="edieresis" format="2">
  <advance width="554"/>
  <unicode hex="00EB"/>
  <outline>
    <contour>
      <point x="509" y="221" type="line"/>
      <point x="509" y="221"/>
      <point x="510" y="243"/>
      <point x="510" y="244" type="curve" smooth="yes"/>
      <point x="510" y="397"/>
      <point x="405" y="480"/>
      <point x="276" y="480" type="curve" smooth="yes"/>
      <point x="141" y="480"/>
      <point x="44" y="397"/>
      <point x="44" y="242" type="curve" smooth="yes"/>
      <point x="46" y="66"/>
      <point x="139" y="-3"/>
      <point x="277" y="-3" type="curve" smooth="yes"/>
      <point x="378" y="-3"/>
      <point x="455" y="33"/>
      <point x="490" y="120" type="curve"/>
      <point x="441" y="142" type="line"/>
      <point x="441" y="141"/>
      <point x="440" y="141"/>
      <point x="440" y="140" type="curve"/>
      <point x="409" y="72"/>
      <point x="346" y="48"/>
      <point x="277" y="49" type="curve" smooth="yes"/>
      <point x="177" y="51"/>
      <point x="101" y="103"/>
      <point x="101" y="221" type="curve"/>
      <point x="456" y="221" type="line"/>
    </contour>
    <contour>
      <point x="277" y="429" type="curve" smooth="yes"/>
      <point x="369" y="429"/>
      <point x="454" y="375"/>
      <point x="454" y="267" type="curve"/>
      <point x="101" y="267" type="line"/>
      <point x="101" y="375"/>
      <point x="191" y="432"/>
    </contour>
    <contour>
      <point x="490" y="120" type="line"/>
      <point x="491" y="119" type="line"/>
    </contour>
    <contour>
      <point x="155" y="616" type="line"/>
      <point x="220" y="616" type="line"/>
      <point x="220" y="681" type="line"/>
      <point x="155" y="681" type="line"/>
    </contour>
    <contour>
      <point x="334" y="616" type="line"/>
      <point x="399" y="616" type="line"/>
      <point x="399" y="681" type="line"/>
      <point x="334" y="681" type="line"/>
    </contour>
    <contour>
      <point x="368" y="598" type="curve" smooth="yes"/>
      <point x="396" y="598"/>
      <point x="417" y="621"/>
      <point x="417" y="649" type="curve" smooth="yes"/>
      <point x="417" y="677"/>
      <point x="396" y="700"/>
      <point x="368" y="700" type="curve" smooth="yes"/>
      <point x="340" y="700"/>
      <point x="319" y="677"/>
      <point x="319" y="649" type="curve" smooth="yes"/>
      <point x="319" y="621"/>
      <point x="340" y="598"/>
    </contour>
    <contour>
      <point x="188" y="598" type="curve" smooth="yes"/>
      <point x="216" y="598"/>
      <point x="237" y="621"/>
      <point x="237" y="649" type="curve" smooth="yes"/>
      <point x="237" y="677"/>
      <point x="216" y="700"/>
      <point x="188" y="700" type="curve" smooth="yes"/>
      <point x="160" y="700"/>
      <point x="139" y="677"/>
      <point x="139" y="649" type="curve" smooth="yes"/>
      <point x="139" y="621"/>
      <point x="160" y="598"/>
    </contour>
  </outline>
</glyph>
<glyph name="igrave" format="2">
  <advance width="297"/>
  <unicode hex="00EC"/>
  <outline>
    <contour>
      <point x="48" y="477" type="line"/>
      <point x="48" y="425" type="line"/>
      <point x="125" y="425" type="line"/>
      <point x="125" y="50" type="line"/>
      <point x="48" y="50" type="line"/>
      <point x="48" y="0" type="line"/>
      <point x="262" y="0" type="line"/>
      <point x="262" y="50" type="line"/>
      <point x="185" y="50" type="line"/>
      <point x="185" y="477" type="line"/>
      <point x="160" y="477"/>
      <point x="123" y="477"/>
      <point x="123" y="477" type="curve"/>
    </contour>
    <contour>
      <point x="182" y="425" type="line"/>
      <point x="184" y="477" type="line"/>
    </contour>
    <contour>
      <point x="157" y="611" type="line"/>
      <point x="207" y="611" type="line"/>
      <point x="96" y="750" type="line"/>
      <point x="19" y="750" type="line"/>
    </contour>
  </outline>
</glyph>
<glyph name="iacute" format="2">
  <advance width="297"/>
  <unicode hex="00ED"/>
  <outline>
    <contour>
      <point x="48" y="477" type="line"/>
      <point x="48" y="425" type="line"/>
      <point x="125" y="425" type="line"/>
      <point x="125" y="50" type="line"/>
      <point x="48" y="50" type="line"/>
      <point x="48" y="0" type="line"/>
      <point x="262" y="0" type="line"/>
      <point x="262" y="50" type="line"/>
      <point x="185" y="50" type="line"/>
      <point x="185" y="477" type="line"/>
      <point x="160" y="477"/>
      <point x="123" y="477"/>
      <point x="123" y="477" type="curve"/>
    </contour>
    <contour>
      <point x="182" y="425" type="line"/>
      <point x="184" y="477" type="line"/>
    </contour>
    <contour>
      <point x="111" y="611" type="line"/>
      <point x="249" y="750" type="line"/>
      <point x="172" y="750" type="line"/>
      <point x="61" y="611" type="line"/>
    </contour>
  </outline>
</glyph>
<glyph name="icircumflex" format="2">
  <advance width="297"/>
  <unicode hex="00EE"/>
  <outline>
    <contour>
      <point x="48" y="477" type="line"/>
      <point x="48" y="425" type="line"/>
      <point x="125" y="425" type="line"/>
      <point x="125" y="50" type="line"/>
      <point x="48" y="50" type="line"/>
      <point x="48" y="0" type="line"/>
      <point x="262" y="0" type="line"/>
      <point x="262" y="50" type="line"/>
      <point x="185" y="50" type="line"/>
      <point x="185" y="477" type="line"/>
      <point x="160" y="477"/>
      <point x="123" y="477"/>
      <point x="123" y="477" type="curve"/>
    </contour>
    <contour>
      <point x="182" y="425" type="line"/>
      <point x="184" y="477" type="line"/>
    </contour>
    <contour>
      <point x="25" y="586" type="line"/>
      <point x="134" y="687" type="line"/>
      <point x="243" y="586" type="line"/>
      <point x="278" y="616" type="line"/>
      <point x="134" y="750" type="line"/>
      <point x="-10" y="616" type="line"/>
    </contour>
  </outline>
</glyph>
<glyph name="eth" format="2">
  <advance width="584"/>
  <unicode hex="00F0"/>
  <outline>
    <contour>
      <point x="186" y="810" type="line"/>
      <point x="169" y="760" type="line"/>
    </contour>
    <contour>
      <point x="205" y="510" type="line"/>
      <point x="344" y="638" type="line"/>
      <point x="611" y="339"/>
      <point x="438" y="93"/>
      <point x="446" y="111" type="curve"/>
      <point x="535" y="217" type="line"/>
      <point x="561" y="430"/>
      <point x="465" y="577"/>
      <point x="382" y="672" type="curve"/>
      <point x="489" y="769" type="line"/>
      <point x="456" y="808" type="line"/>
      <point x="347" y="709" type="line"/>
      <point x="308" y="747"/>
      <point x="266" y="774"/>
      <point x="229" y="793" type="curve" smooth="yes"/>
      <point x="214" y="800"/>
      <point x="199" y="806"/>
      <point x="186" y="810" type="curve"/>
      <point x="169" y="760" type="line"/>
      <point x="170" y="760" type="line"/>
      <point x="207" y="753"/>
      <point x="259" y="723"/>
      <point x="309" y="674" type="curve"/>
      <point x="173" y="550" type="line"/>
    </contour>
    <contour>
      <point x="292" y="-6" type="curve" smooth="yes"/>
      <point x="432" y="-6"/>
      <point x="536" y="102"/>
      <point x="536" y="239" type="curve" smooth="yes"/>
      <point x="536" y="374"/>
      <point x="432" y="481"/>
      <point x="292" y="481" type="curve" smooth="yes"/>
      <point x="152" y="481"/>
      <point x="48" y="374"/>
      <point x="48" y="239" type="curve" smooth="yes"/>
      <point x="48" y="102"/>
      <point x="152" y="-6"/>
    </contour>
    <contour>
      <point x="292" y="46" type="curve" smooth="yes"/>
      <point x="188" y="46"/>
      <point x="107" y="125"/>
      <point x="107" y="239" type="curve" smooth="yes"/>
      <point x="107" y="350"/>
      <point x="188" y="429"/>
      <point x="292" y="429" type="curve" smooth="yes"/>
      <point x="395" y="429"/>
      <point x="477" y="350"/>
      <point x="477" y="239" type="curve" smooth="yes"/>
      <point x="477" y="125"/>
      <point x="395" y="46"/>
    </contour>
  </outline>
</glyph>
<glyph name="ntilde" format="2">
  <advance width="607"/>
  <unicode hex="00F1"/>
  <outline>
    <contour>
      <point x="46" y="475" type="line"/>
      <point x="46" y="426" type="line"/>
      <point x="119" y="426" type="line"/>
      <point x="119" y="50" type="line"/>
      <point x="45" y="50" type="line"/>
      <point x="45" y="0" type="line"/>
      <point x="256" y="0" type="line"/>
      <point x="256" y="50" type="line"/>
      <point x="179" y="50" type="line"/>
      <point x="179" y="296" type="line"/>
      <point x="179" y="296"/>
      <point x="247" y="456"/>
      <point x="379" y="420" type="curve" smooth="yes"/>
      <point x="413" y="411"/>
      <point x="445" y="366"/>
      <point x="446" y="317" type="curve" smooth="yes"/>
      <point x="446" y="50" type="line"/>
      <point x="369" y="50" type="line"/>
      <point x="369" y="0" type="line"/>
      <point x="577" y="0" type="line"/>
      <point x="577" y="50" type="line"/>
      <point x="506" y="50" type="line"/>
      <point x="506" y="318" type="line" smooth="yes"/>
      <point x="506" y="398"/>
      <point x="456" y="477"/>
      <point x="333" y="477" type="curve" smooth="yes"/>
      <point x="221" y="477"/>
      <point x="177" y="378"/>
      <point x="177" y="378" type="curve"/>
      <point x="177" y="475" type="line"/>
    </contour>
    <contour>
      <point x="374" y="594" type="curve" smooth="yes"/>
      <point x="417" y="594"/>
      <point x="457" y="643"/>
      <point x="459" y="700" type="curve"/>
      <point x="414" y="706" type="line"/>
      <point x="410" y="673"/>
      <point x="395" y="643"/>
      <point x="371" y="643" type="curve" smooth="yes"/>
      <point x="357" y="643"/>
      <point x="346" y="650"/>
      <point x="324" y="668" type="curve" smooth="yes"/>
      <point x="300" y="688"/>
      <point x="275" y="707"/>
      <point x="236" y="707" type="curve" smooth="yes"/>
      <point x="193" y="707"/>
      <point x="153" y="663"/>
      <point x="151" y="606" type="curve"/>
      <point x="196" y="600" type="line"/>
      <point x="200" y="633"/>
      <point x="215" y="658"/>
      <point x="239" y="658" type="curve" smooth="yes"/>
      <point x="253" y="658"/>
      <point x="264" y="651"/>
      <point x="286" y="633" type="curve" smooth="yes"/>
      <point x="310" y="613"/>
      <point x="335" y="594"/>
    </contour>
  </outline>
</glyph>
<glyph name="ograve" format="2">
  <advance width="584"/>
  <unicode hex="00F2"/>
  <outline>
    <contour>
      <point x="292" y="-6" type="curve" smooth="yes"/>
      <point x="432" y="-6"/>
      <point x="536" y="102"/>
      <point x="536" y="239" type="curve" smooth="yes"/>
      <point x="536" y="374"/>
      <point x="432" y="481"/>
      <point x="292" y="481" type="curve" smooth="yes"/>
      <point x="152" y="481"/>
      <point x="48" y="374"/>
      <point x="48" y="239" type="curve" smooth="yes"/>
      <point x="48" y="102"/>
      <point x="152" y="-6"/>
    </contour>
    <contour>
      <point x="292" y="46" type="curve" smooth="yes"/>
      <point x="188" y="46"/>
      <point x="107" y="125"/>
      <point x="107" y="239" type="curve" smooth="yes"/>
      <point x="107" y="350"/>
      <point x="188" y="429"/>
      <point x="292" y="429" type="curve" smooth="yes"/>
      <point x="395" y="429"/>
      <point x="477" y="350"/>
      <point x="477" y="239" type="curve" smooth="yes"/>
      <point x="477" y="125"/>
      <point x="395" y="46"/>
    </contour>
    <contour>
      <point x="336" y="611" type="line"/>
      <point x="386" y="611" type="line"/>
      <point x="275" y="750" type="line"/>
      <point x="198" y="750" type="line"/>
    </contour>
  </outline>
</glyph>
<glyph name="ocircumflex" format="2">
  <advance width="584"/>
  <unicode hex="00F4"/>
  <outline>
    <contour>
      <point x="292" y="-6" type="curve" smooth="yes"/>
      <point x="432" y="-6"/>
      <point x="536" y="102"/>
      <point x="536" y="239" type="curve" smooth="yes"/>
      <point x="536" y="374"/>
      <point x="432" y="481"/>
      <point x="292" y="481" type="curve" smooth="yes"/>
      <point x="152" y="481"/>
      <point x="48" y="374"/>
      <point x="48" y="239" type="curve" smooth="yes"/>
      <point x="48" y="102"/>
      <point x="152" y="-6"/>
    </contour>
    <contour>
      <point x="292" y="46" type="curve" smooth="yes"/>
      <point x="188" y="46"/>
      <point x="107" y="125"/>
      <point x="107" y="239" type="curve" smooth="yes"/>
      <point x="107" y="350"/>
      <point x="188" y="429"/>
      <point x="292" y="429" type="curve" smooth="yes"/>
      <point x="395" y="429"/>
      <point x="477" y="350"/>
      <point x="477" y="239" type="curve" smooth="yes"/>
      <point x="477" y="125"/>
      <point x="395" y="46"/>
    </contour>
    <contour>
      <point x="184" y="586" type="line"/>
      <point x="293" y="687" type="line"/>
      <point x="402" y="586" type="line"/>
      <point x="437" y="616" type="line"/>
      <point x="293" y="750" type="line"/>
      <point x="149" y="616" type="line"/>
    </contour>
  </outline>
</glyph>
<glyph name="otilde" format="2">
  <advance width="584"/>
  <unicode hex="00F5"/>
  <outline>
    <contour>
      <point x="292" y="-6" type="curve" smooth="yes"/>
      <point x="432" y="-6"/>
      <point x="536" y="102"/>
      <point x="536" y="239" type="curve" smooth="yes"/>
      <point x="536" y="374"/>
      <point x="432" y="481"/>
      <point x="292" y="481" type="curve" smooth="yes"/>
      <point x="152" y="481"/>
      <point x="48" y="374"/>
      <point x="48" y="239" type="curve" smooth="yes"/>
      <point x="48" y="102"/>
      <point x="152" y="-6"/>
    </contour>
    <contour>
      <point x="292" y="46" type="curve" smooth="yes"/>
      <point x="188" y="46"/>
      <point x="107" y="125"/>
      <point x="107" y="239" type="curve" smooth="yes"/>
      <point x="107" y="350"/>
      <point x="188" y="429"/>
      <point x="292" y="429" type="curve" smooth="yes"/>
      <point x="395" y="429"/>
      <point x="477" y="350"/>
      <point x="477" y="239" type="curve" smooth="yes"/>
      <point x="477" y="125"/>
      <point x="395" y="46"/>
    </contour>
    <contour>
      <point x="361" y="594" type="curve" smooth="yes"/>
      <point x="404" y="594"/>
      <point x="444" y="643"/>
      <point x="446" y="700" type="curve"/>
      <point x="401" y="706" type="line"/>
      <point x="397" y="673"/>
      <point x="382" y="643"/>
      <point x="358" y="643" type="curve" smooth="yes"/>
      <point x="344" y="643"/>
      <point x="333" y="650"/>
      <point x="311" y="668" type="curve" smooth="yes"/>
      <point x="287" y="688"/>
      <point x="262" y="707"/>
      <point x="223" y="707" type="curve" smooth="yes"/>
      <point x="180" y="707"/>
      <point x="140" y="663"/>
      <point x="138" y="606" type="curve"/>
      <point x="183" y="600" type="line"/>
      <point x="187" y="633"/>
      <point x="202" y="658"/>
      <point x="226" y="658" type="curve" smooth="yes"/>
      <point x="240" y="658"/>
      <point x="251" y="651"/>
      <point x="273" y="633" type="curve" smooth="yes"/>
      <point x="297" y="613"/>
      <point x="322" y="594"/>
    </contour>
  </outline>
</glyph>
<glyph name="odieresis" format="2">
  <advance width="584"/>
  <unicode hex="00F6"/>
  <outline>
    <contour>
      <point x="292" y="-6" type="curve" smooth="yes"/>
      <point x="432" y="-6"/>
      <point x="536" y="102"/>
      <point x="536" y="239" type="curve" smooth="yes"/>
      <point x="536" y="374"/>
      <point x="432" y="481"/>
      <point x="292" y="481" type="curve" smooth="yes"/>
      <point x="152" y="481"/>
      <point x="48" y="374"/>
      <point x="48" y="239" type="curve" smooth="yes"/>
      <point x="48" y="102"/>
      <point x="152" y="-6"/>
    </contour>
    <contour>
      <point x="292" y="46" type="curve" smooth="yes"/>
      <point x="188" y="46"/>
      <point x="107" y="125"/>
      <point x="107" y="239" type="curve" smooth="yes"/>
      <point x="107" y="350"/>
      <point x="188" y="429"/>
      <point x="292" y="429" type="curve" smooth="yes"/>
      <point x="395" y="429"/>
      <point x="477" y="350"/>
      <point x="477" y="239" type="curve" smooth="yes"/>
      <point x="477" y="125"/>
      <point x="395" y="46"/>
    </contour>
    <contour>
      <point x="170" y="616" type="line"/>
      <point x="235" y="616" type="line"/>
      <point x="235" y="681" type="line"/>
      <point x="170" y="681" type="line"/>
    </contour>
    <contour>
      <point x="349" y="616" type="line"/>
      <point x="414" y="616" type="line"/>
      <point x="414" y="681" type="line"/>
      <point x="349" y="681" type="line"/>
    </contour>
    <contour>
      <point x="383" y="598" type="curve" smooth="yes"/>
      <point x="411" y="598"/>
      <point x="432" y="621"/>
      <point x="432" y="649" type="curve" smooth="yes"/>
      <point x="432" y="677"/>
      <point x="411" y="700"/>
      <point x="383" y="700" type="curve" smooth="yes"/>
      <point x="355" y="700"/>
      <point x="334" y="677"/>
      <point x="334" y="649" type="curve" smooth="yes"/>
      <point x="334" y="621"/>
      <point x="355" y="598"/>
    </contour>
    <contour>
      <point x="203" y="598" type="curve" smooth="yes"/>
      <point x="231" y="598"/>
      <point x="252" y="621"/>
      <point x="252" y="649" type="curve" smooth="yes"/>
      <point x="252" y="677"/>
      <point x="231" y="700"/>
      <point x="203" y="700" type="curve" smooth="yes"/>
      <point x="175" y="700"/>
      <point x="154" y="677"/>
      <point x="154" y="649" type="curve" smooth="yes"/>
      <point x="154" y="621"/>
      <point x="175" y="598"/>
    </contour>
  </outline>
</glyph>
<glyph name="oslash" format="2">
  <advance width="584"/>
  <unicode hex="00F8"/>
  <outline>
    <contour>
      <point x="40" y="5" type="line"/>
      <point x="108" y="5" type="line"/>
      <point x="551" y="484" type="line"/>
      <point x="483" y="484" type="line"/>
    </contour>
    <contour>
      <point x="292" y="-6" type="curve" smooth="yes"/>
      <point x="432" y="-6"/>
      <point x="536" y="102"/>
      <point x="536" y="239" type="curve" smooth="yes"/>
      <point x="536" y="374"/>
      <point x="432" y="481"/>
      <point x="292" y="481" type="curve" smooth="yes"/>
      <point x="152" y="481"/>
      <point x="48" y="374"/>
      <point x="48" y="239" type="curve" smooth="yes"/>
      <point x="48" y="102"/>
      <point x="152" y="-6"/>
    </contour>
    <contour>
      <point x="292" y="46" type="curve" smooth="yes"/>
      <point x="188" y="46"/>
      <point x="107" y="125"/>
      <point x="107" y="239" type="curve" smooth="yes"/>
      <point x="107" y="350"/>
      <point x="188" y="429"/>
      <point x="292" y="429" type="curve" smooth="yes"/>
      <point x="395" y="429"/>
      <point x="477" y="350"/>
      <point x="477" y="239" type="curve" smooth="yes"/>
      <point x="477" y="125"/>
      <point x="395" y="46"/>
    </contour>
  </outline>
</glyph>
<glyph name="udieresis" format="2">
  <advance width="594"/>
  <unicode hex="00FC"/>
  <outline>
    <contour>
      <point x="561" y="0" type="line"/>
      <point x="561" y="49" type="line"/>
      <point x="488" y="49" type="line"/>
      <point x="488" y="425" type="line"/>
      <point x="488" y="475" type="line"/>
      <point x="351" y="475" type="line"/>
      <point x="351" y="425" type="line"/>
      <point x="428" y="425" type="line"/>
      <point x="428" y="174" type="line"/>
      <point x="428" y="174"/>
      <point x="360" y="19"/>
      <point x="228" y="55" type="curve" smooth="yes"/>
      <point x="194" y="64"/>
      <point x="162" y="94"/>
      <point x="161" y="143" type="curve" smooth="yes"/>
      <point x="161" y="425" type="line"/>
      <point x="161" y="475" type="line"/>
      <point x="30" y="475" type="line"/>
      <point x="30" y="425" type="line"/>
      <point x="101" y="425" type="line"/>
      <point x="101" y="125" type="line" smooth="yes"/>
      <point x="101" y="76"/>
      <point x="151" y="-2"/>
      <point x="274" y="-2" type="curve" smooth="yes"/>
      <point x="386" y="-2"/>
      <point x="430" y="92"/>
      <point x="430" y="92" type="curve"/>
      <point x="430" y="0" type="line"/>
    </contour>
    <contour>
      <point x="173" y="665" type="line"/>
      <point x="238" y="665" type="line"/>
      <point x="238" y="730" type="line"/>
      <point x="173" y="730" type="line"/>
    </contour>
    <contour>
      <point x="352" y="665" type="line"/>
      <point x="417" y="665" type="line"/>
      <point x="417" y="730" type="line"/>
      <point x="352" y="730" type="line"/>
    </contour>
    <contour>
      <point x="386" y="647" type="curve" smooth="yes"/>
      <point x="414" y="647"/>
      <point x="435" y="670"/>
      <point x="435" y="698" type="curve" smooth="yes"/>
      <point x="435" y="726"/>
      <point x="414" y="749"/>
      <point x="386" y="749" type="curve" smooth="yes"/>
      <point x="358" y="749"/>
      <point x="337" y="726"/>
      <point x="337" y="698" type="curve" smooth="yes"/>
      <point x="337" y="670"/>
      <point x="358" y="647"/>
    </contour>
    <contour>
      <point x="206" y="647" type="curve" smooth="yes"/>
      <point x="234" y="647"/>
      <point x="255" y="670"/>
      <point x="255" y="698" type="curve" smooth="yes"/>
      <point x="255" y="726"/>
      <point x="234" y="749"/>
      <point x="206" y="749" type="curve" smooth="yes"/>
      <point x="178" y="749"/>
      <point x="157" y="726"/>
      <point x="157" y="698" type="curve" smooth="yes"/>
      <point x="157" y="670"/>
      <point x="178" y="647"/>
    </contour>
  </outline>
</glyph>
<glyph name="thorn" format="2">
  <advance width="523"/>
  <unicode hex="00FE"/>
  <outline>
    <contour>
      <point x="3" y="-199" type="line"/>
      <point x="211" y="-199" type="line"/>
      <point x="211" y="-149" type="line"/>
      <point x="124" y="-149" type="line"/>
      <point x="124" y="51" type="line"/>
      <point x="161" y="21"/>
      <point x="210" y="2"/>
      <point x="261" y="2" type="curve" smooth="yes"/>
      <point x="393" y="2"/>
      <point x="473" y="105"/>
      <point x="473" y="223" type="curve" smooth="yes"/>
      <point x="473" y="353"/>
      <point x="382" y="438"/>
      <point x="271" y="438" type="curve" smooth="yes"/>
      <point x="205" y="438"/>
      <point x="161" y="409"/>
      <point x="124" y="370" type="curve"/>
      <point x="124" y="750" type="line"/>
      <point x="3" y="750" type="line"/>
      <point x="3" y="701" type="line"/>
      <point x="73" y="701" type="line"/>
      <point x="73" y="-149" type="line"/>
      <point x="3" y="-149" type="line"/>
    </contour>
    <contour>
      <point x="263" y="48" type="curve" smooth="yes"/>
      <point x="201" y="48"/>
      <point x="158" y="71"/>
      <point x="124" y="101" type="curve"/>
      <point x="124" y="320" type="line"/>
      <point x="161" y="361"/>
      <point x="207" y="392"/>
      <point x="268" y="392" type="curve" smooth="yes"/>
      <point x="356" y="392"/>
      <point x="420" y="322"/>
      <point x="419" y="222" type="curve" smooth="yes"/>
      <point x="418" y="125"/>
      <point x="357" y="48"/>
    </contour>
  </outline>
</glyph>
<glyph name="ydieresis" format="2">
  <advance width="597"/>
  <unicode hex="00FF"/>
  <outline>
    <contour>
      <point x="590" y="426" type="line"/>
      <point x="509" y="426" type="line"/>
      <point x="224" y="-167" type="line"/>
      <point x="316" y="-167" type="line"/>
      <point x="316" y="-215" type="line"/>
      <point x="94" y="-215" type="line"/>
      <point x="94" y="-167" type="line"/>
      <point x="164" y="-167" type="line"/>
      <point x="263" y="40" type="line"/>
      <point x="80" y="426" type="line"/>
      <point x="7" y="426" type="line"/>
      <point x="7" y="475" type="line"/>
      <point x="219" y="475" type="line"/>
      <point x="219" y="426" type="line"/>
      <point x="140" y="426" type="line"/>
      <point x="292" y="102" type="line"/>
      <point x="449" y="426" type="line"/>
      <point x="374" y="426" type="line"/>
      <point x="374" y="475" type="line"/>
      <point x="590" y="475" type="line"/>
    </contour>
    <contour>
      <point x="176" y="666" type="line"/>
      <point x="241" y="666" type="line"/>
      <point x="241" y="731" type="line"/>
      <point x="176" y="731" type="line"/>
    </contour>
    <contour>
      <point x="355" y="666" type="line"/>
      <point x="420" y="666" type="line"/>
      <point x="420" y="731" type="line"/>
      <point x="355" y="731" type="line"/>
    </contour>
    <contour>
      <point x="389" y="648" type="curve" smooth="yes"/>
      <point x="417" y="648"/>
      <point x="438" y="671"/>
      <point x="438" y="699" type="curve" smooth="yes"/>
      <point x="438" y="727"/>
      <point x="417" y="750"/>
      <point x="389" y="750" type="curve" smooth="yes"/>
      <point x="361" y="750"/>
      <point x="340" y="727"/>
      <point x="340" y="699" type="curve" smooth="yes"/>
      <point x="340" y="671"/>
      <point x="361" y="648"/>
    </contour>
    <contour>
      <point x="209" y="648" type="curve" smooth="yes"/>
      <point x="237" y="648"/>
      <point x="258" y="671"/>
      <point x="258" y="699" type="curve" smooth="yes"/>
      <point x="258" y="727"/>
      <point x="237" y="750"/>
      <point x="209" y="750" type="curve" smooth="yes"/>
      <point x="181" y="750"/>
      <point x="160" y="727"/>
      <point x="160" y="699" type="curve" smooth="yes"/>
      <point x="160" y="671"/>
      <point x="181" y="648"/>
    </contour>
  </outline>
</glyph>
<glyph name="amacron" format="2">
  <advance width="642"/>
  <unicode hex="0101"/>
  <outline>
    <contour>
      <point x="610" y="472" type="line"/>
      <point x="487" y="472" type="line"/>
      <point x="486" y="374" type="line"/>
      <point x="479" y="384"/>
      <point x="471" y="394"/>
      <point x="463" y="404" type="curve"/>
      <point x="422" y="450"/>
      <point x="367" y="473"/>
      <point x="296" y="473" type="curve" smooth="yes"/>
      <point x="225" y="473"/>
      <point x="166" y="450"/>
      <point x="119" y="403" type="curve" smooth="yes"/>
      <point x="72" y="357"/>
      <point x="49" y="301"/>
      <point x="49" y="234" type="curve" smooth="yes"/>
      <point x="48" y="167"/>
      <point x="71" y="111"/>
      <point x="118" y="67" type="curve" smooth="yes"/>
      <point x="165" y="22"/>
      <point x="224" y="0"/>
      <point x="296" y="0" type="curve" smooth="yes"/>
      <point x="367" y="0"/>
      <point x="422" y="22"/>
      <point x="463" y="67" type="curve" smooth="yes"/>
      <point x="471" y="76"/>
      <point x="478" y="85"/>
      <point x="484" y="95" type="curve"/>
      <point x="485" y="0" type="line"/>
      <point x="610" y="0" type="line"/>
      <point x="610" y="50" type="line"/>
      <point x="544" y="50" type="line"/>
      <point x="544" y="425" type="line"/>
      <point x="609" y="425" type="line"/>
    </contour>
    <contour>
      <point x="484" y="236" type="curve" smooth="yes"/>
      <point x="484" y="235" type="line" smooth="yes"/>
      <point x="484" y="120"/>
      <point x="409" y="54"/>
      <point x="298" y="54" type="curve" smooth="yes"/>
      <point x="241" y="54"/>
      <point x="196" y="70"/>
      <point x="161" y="101" type="curve" smooth="yes"/>
      <point x="126" y="133"/>
      <point x="109" y="177"/>
      <point x="109" y="234" type="curve" smooth="yes"/>
      <point x="109" y="291"/>
      <point x="126" y="336"/>
      <point x="160" y="369" type="curve" smooth="yes"/>
      <point x="195" y="402"/>
      <point x="240" y="418"/>
      <point x="296" y="418" type="curve" smooth="yes"/>
      <point x="410" y="418"/>
      <point x="484" y="350"/>
    </contour>
    <contour>
      <point x="484" y="95" type="line"/>
      <point x="486" y="374" type="line"/>
    </contour>
    <contour>
      <point x="194" y="604" type="line"/>
      <point x="469" y="604" type="line"/>
      <point x="469" y="650" type="line"/>
      <point x="194" y="650" type="line"/>
    </contour>
  </outline>
</glyph>
<glyph name="aogonek" format="2">
  <advance width="642"/>
  <unicode hex="0105"/>
  <outline>
    <contour>
      <point x="610" y="472" type="line"/>
      <point x="487" y="472" type="line"/>
      <point x="486" y="374" type="line"/>
      <point x="479" y="384"/>
      <point x="471" y="394"/>
      <point x="463" y="404" type="curve"/>
      <point x="422" y="450"/>
      <point x="367" y="473"/>
      <point x="296" y="473" type="curve" smooth="yes"/>
      <point x="225" y="473"/>
      <point x="166" y="450"/>
      <point x="119" y="403" type="curve" smooth="yes"/>
      <point x="72" y="357"/>
      <point x="49" y="301"/>
      <point x="49" y="234" type="curve" smooth="yes"/>
      <point x="48" y="167"/>
      <point x="71" y="111"/>
      <point x="118" y="67" type="curve" smooth="yes"/>
      <point x="165" y="22"/>
      <point x="224" y="0"/>
      <point x="296" y="0" type="curve" smooth="yes"/>
      <point x="367" y="0"/>
      <point x="422" y="22"/>
      <point x="463" y="67" type="curve" smooth="yes"/>
      <point x="471" y="76"/>
      <point x="478" y="85"/>
      <point x="484" y="95" type="curve"/>
      <point x="485" y="0" type="line"/>
      <point x="610" y="0" type="line"/>
      <point x="610" y="50" type="line"/>
      <point x="544" y="50" type="line"/>
      <point x="544" y="425" type="line"/>
      <point x="609" y="425" type="line"/>
    </contour>
    <contour>
      <point x="484" y="236" type="curve" smooth="yes"/>
      <point x="484" y="235" type="line" smooth="yes"/>
      <point x="484" y="120"/>
      <point x="409" y="54"/>
      <point x="298" y="54" type="curve" smooth="yes"/>
      <point x="241" y="54"/>
      <point x="196" y="70"/>
      <point x="161" y="101" type="curve" smooth="yes"/>
      <point x="126" y="133"/>
      <point x="109" y="177"/>
      <point x="109" y="234" type="curve" smooth="yes"/>
      <point x="109" y="291"/>
      <point x="126" y="336"/>
      <point x="160" y="369" type="curve" smooth="yes"/>
      <point x="195" y="402"/>
      <point x="240" y="418"/>
      <point x="296" y="418" type="curve" smooth="yes"/>
      <point x="410" y="418"/>
      <point x="484" y="350"/>
    </contour>
    <contour>
      <point x="484" y="95" type="line"/>
      <point x="486" y="374" type="line"/>
    </contour>
    <contour>
      <point x="560" y="-192" type="curve" smooth="yes"/>
      <point x="595" y="-183"/>
      <point x="637" y="-148"/>
      <point x="648" y="-134" type="curve"/>
      <point x="624" y="-106" type="line"/>
      <point x="607" y="-123"/>
      <point x="583" y="-143"/>
      <point x="552" y="-151" type="curve" smooth="yes"/>
      <point x="515" y="-160"/>
      <point x="489" y="-144"/>
      <point x="480" y="-114" type="curve" smooth="yes"/>
      <point x="465" y="-64"/>
      <point x="519" y="-2"/>
      <point x="586" y="36" type="curve"/>
      <point x="526" y="36" type="line"/>
      <point x="465" y="-3"/>
      <point x="420" y="-72"/>
      <point x="438" y="-135" type="curve" smooth="yes"/>
      <point x="453" y="-187"/>
      <point x="495" y="-211"/>
    </contour>
  </outline>
</glyph>
<glyph name="cdotaccent" format="2">
  <advance width="547"/>
  <unicode hex="010B"/>
  <outline>
    <contour>
      <point x="503" y="321" type="curve"/>
      <point x="503" y="477" type="line"/>
      <point x="452" y="477" type="line"/>
      <point x="452" y="411" type="line"/>
      <point x="409" y="456"/>
      <point x="348" y="480"/>
      <point x="280" y="480" type="curve" smooth="yes"/>
      <point x="145" y="480"/>
      <point x="46" y="399"/>
      <point x="46" y="242" type="curve" smooth="yes"/>
      <point x="48" y="66"/>
      <point x="143" y="-3"/>
      <point x="281" y="-3" type="curve" smooth="yes"/>
      <point x="464" y="-3"/>
      <point x="501" y="114"/>
      <point x="501" y="114" type="curve"/>
      <point x="451" y="134" type="line"/>
      <point x="451" y="134"/>
      <point x="423" y="49"/>
      <point x="281" y="49" type="curve" smooth="yes"/>
      <point x="181" y="49"/>
      <point x="99" y="103"/>
      <point x="99" y="242" type="curve" smooth="yes"/>
      <point x="99" y="376"/>
      <point x="200" y="426"/>
      <point x="281" y="426" type="curve" smooth="yes"/>
      <point x="352" y="426"/>
      <point x="423" y="397"/>
      <point x="452" y="322" type="curve"/>
      <point x="452" y="321"/>
      <point x="502" y="322"/>
    </contour>
    <contour>
      <point x="276" y="576" type="curve" smooth="yes"/>
      <point x="305" y="576"/>
      <point x="327" y="600"/>
      <point x="327" y="629" type="curve" smooth="yes"/>
      <point x="327" y="658"/>
      <point x="305" y="682"/>
      <point x="276" y="682" type="curve" smooth="yes"/>
      <point x="247" y="682"/>
      <point x="225" y="658"/>
      <point x="225" y="629" type="curve" smooth="yes"/>
      <point x="225" y="600"/>
      <point x="247" y="576"/>
    </contour>
  </outline>
</glyph>
<glyph name="Ebreve" format="2">
  <advance width="623"/>
  <unicode hex="0114"/>
  <outline>
    <contour>
      <point x="188" y="427" type="line"/>
      <point x="188" y="700" type="line"/>
      <point x="504" y="700" type="line"/>
      <point x="504" y="585" type="line"/>
      <point x="554" y="585" type="line"/>
      <point x="554" y="750" type="line"/>
      <point x="52" y="750" type="line"/>
      <point x="52" y="700" type="line"/>
      <point x="127" y="700" type="line"/>
      <point x="127" y="50" type="line"/>
      <point x="52" y="50" type="line"/>
      <point x="52" y="0" type="line"/>
      <point x="554" y="0" type="line"/>
      <point x="554" y="166" type="line"/>
      <point x="504" y="166" type="line"/>
      <point x="504" y="50" type="line"/>
      <point x="188" y="50" type="line"/>
      <point x="188" y="375" type="line"/>
      <point x="453" y="375" type="line"/>
      <point x="453" y="427" type="line"/>
    </contour>
    <contour>
      <point x="298" y="903" type="line" smooth="yes"/>
      <point x="248" y="904"/>
      <point x="213" y="926"/>
      <point x="205" y="969" type="curve"/>
      <point x="164" y="963" type="line"/>
      <point x="175" y="896"/>
      <point x="214" y="861"/>
      <point x="298" y="860" type="curve" smooth="yes"/>
      <point x="307" y="860" type="line" smooth="yes"/>
      <point x="390" y="861"/>
      <point x="430" y="896"/>
      <point x="441" y="963" type="curve"/>
      <point x="400" y="969" type="line"/>
      <point x="392" y="926"/>
      <point x="357" y="904"/>
      <point x="307" y="903" type="curve"/>
    </contour>
  </outline>
</glyph>
<glyph name="ebreve" format="2">
  <advance width="554"/>
  <unicode hex="0115"/>
  <outline>
    <contour>
      <point x="509" y="221" type="line"/>
      <point x="509" y="221"/>
      <point x="510" y="243"/>
      <point x="510" y="244" type="curve" smooth="yes"/>
      <point x="510" y="397"/>
      <point x="405" y="480"/>
      <point x="276" y="480" type="curve" smooth="yes"/>
      <point x="141" y="480"/>
      <point x="44" y="397"/>
      <point x="44" y="242" type="curve" smooth="yes"/>
      <point x="46" y="66"/>
      <point x="139" y="-3"/>
      <point x="277" y="-3" type="curve" smooth="yes"/>
      <point x="378" y="-3"/>
      <point x="455" y="33"/>
      <point x="490" y="120" type="curve"/>
      <point x="441" y="142" type="line"/>
      <point x="441" y="141"/>
      <point x="440" y="141"/>
      <point x="440" y="140" type="curve"/>
      <point x="409" y="72"/>
      <point x="346" y="48"/>
      <point x="277" y="49" type="curve" smooth="yes"/>
      <point x="177" y="51"/>
      <point x="101" y="103"/>
      <point x="101" y="221" type="curve"/>
      <point x="456" y="221" type="line"/>
    </contour>
    <contour>
      <point x="277" y="429" type="curve" smooth="yes"/>
      <point x="369" y="429"/>
      <point x="454" y="375"/>
      <point x="454" y="267" type="curve"/>
      <point x="101" y="267" type="line"/>
      <point x="101" y="375"/>
      <point x="191" y="432"/>
    </contour>
    <contour>
      <point x="490" y="120" type="line"/>
      <point x="491" y="119" type="line"/>
    </contour>
    <contour>
      <point x="272" y="618" type="line" smooth="yes"/>
      <point x="222" y="619"/>
      <point x="187" y="641"/>
      <point x="179" y="684" type="curve"/>
      <point x="138" y="678" type="line"/>
      <point x="149" y="611"/>
      <point x="188" y="576"/>
      <point x="272" y="575" type="curve" smooth="yes"/>
      <point x="281" y="575" type="line" smooth="yes"/>
      <point x="364" y="576"/>
      <point x="404" y="611"/>
      <point x="415" y="678" type="curve"/>
      <point x="374" y="684" type="line"/>
      <point x="366" y="641"/>
      <point x="331" y="619"/>
      <point x="281" y="618" type="curve"/>
    </contour>
  </outline>
</glyph>
<glyph name="Eogonek" format="2">
  <advance width="623"/>
  <unicode hex="0118"/>
  <outline>
    <contour>
      <point x="188" y="427" type="line"/>
      <point x="188" y="700" type="line"/>
      <point x="504" y="700" type="line"/>
      <point x="504" y="585" type="line"/>
      <point x="554" y="585" type="line"/>
      <point x="554" y="750" type="line"/>
      <point x="52" y="750" type="line"/>
      <point x="52" y="700" type="line"/>
      <point x="127" y="700" type="line"/>
      <point x="127" y="50" type="line"/>
      <point x="52" y="50" type="line"/>
      <point x="52" y="0" type="line"/>
      <point x="554" y="0" type="line"/>
      <point x="554" y="166" type="line"/>
      <point x="504" y="166" type="line"/>
      <point x="504" y="50" type="line"/>
      <point x="188" y="50" type="line"/>
      <point x="188" y="375" type="line"/>
      <point x="453" y="375" type="line"/>
      <point x="453" y="427" type="line"/>
    </contour>
    <contour>
      <point x="332" y="-192" type="curve" smooth="yes"/>
      <point x="367" y="-183"/>
      <point x="409" y="-148"/>
      <point x="420" y="-134" type="curve"/>
      <point x="396" y="-106" type="line"/>
      <point x="379" y="-123"/>
      <point x="355" y="-143"/>
      <point x="324" y="-151" type="curve" smooth="yes"/>
      <point x="287" y="-160"/>
      <point x="261" y="-144"/>
      <point x="252" y="-114" type="curve" smooth="yes"/>
      <point x="237" y="-64"/>
      <point x="291" y="-2"/>
      <point x="358" y="36" type="curve"/>
      <point x="298" y="36" type="line"/>
      <point x="237" y="-3"/>
      <point x="192" y="-72"/>
      <point x="210" y="-135" type="curve" smooth="yes"/>
      <point x="225" y="-187"/>
      <point x="267" y="-211"/>
    </contour>
  </outline>
</glyph>
<glyph name="Ecaron" format="2">
  <advance width="623"/>
  <unicode hex="011A"/>
  <outline>
    <contour>
      <point x="188" y="427" type="line"/>
      <point x="188" y="700" type="line"/>
      <point x="504" y="700" type="line"/>
      <point x="504" y="585" type="line"/>
      <point x="554" y="585" type="line"/>
      <point x="554" y="750" type="line"/>
      <point x="52" y="750" type="line"/>
      <point x="52" y="700" type="line"/>
      <point x="127" y="700" type="line"/>
      <point x="127" y="50" type="line"/>
      <point x="52" y="50" type="line"/>
      <point x="52" y="0" type="line"/>
      <point x="554" y="0" type="line"/>
      <point x="554" y="166" type="line"/>
      <point x="504" y="166" type="line"/>
      <point x="504" y="50" type="line"/>
      <point x="188" y="50" type="line"/>
      <point x="188" y="375" type="line"/>
      <point x="453" y="375" type="line"/>
      <point x="453" y="427" type="line"/>
    </contour>
    <contour>
      <point x="303" y="897" type="line"/>
      <point x="221" y="999" type="line"/>
      <point x="157" y="999" type="line"/>
      <point x="279" y="860" type="line"/>
      <point x="327" y="860" type="line"/>
      <point x="450" y="999" type="line"/>
      <point x="385" y="999" type="line"/>
    </contour>
  </outline>
</glyph>
<glyph name="gcircumflex" format="2">
  <advance width="643"/>
  <unicode hex="011D"/>
  <outline>
    <contour>
      <point x="487" y="427" type="line"/>
      <point x="487" y="427"/>
      <point x="487" y="406"/>
      <point x="487" y="374" type="curve"/>
      <point x="480" y="385"/>
      <point x="472" y="396"/>
      <point x="464" y="406" type="curve"/>
      <point x="423" y="452"/>
      <point x="367" y="475"/>
      <point x="296" y="475" type="curve" smooth="yes"/>
      <point x="225" y="475"/>
      <point x="166" y="452"/>
      <point x="119" y="406" type="curve" smooth="yes"/>
      <point x="72" y="359"/>
      <point x="48" y="302"/>
      <point x="48" y="235" type="curve" smooth="yes"/>
      <point x="47" y="168"/>
      <point x="71" y="112"/>
      <point x="118" y="67" type="curve" smooth="yes"/>
      <point x="165" y="22"/>
      <point x="224" y="0"/>
      <point x="296" y="0" type="curve" smooth="yes"/>
      <point x="367" y="0"/>
      <point x="423" y="22"/>
      <point x="464" y="67" type="curve" smooth="yes"/>
      <point x="472" y="76"/>
      <point x="479" y="85"/>
      <point x="485" y="95" type="curve"/>
      <point x="486" y="218" type="line"/>
      <point x="485" y="131"/>
      <point x="485" y="50"/>
      <point x="485" y="50" type="curve"/>
      <point x="485" y="1" type="line" smooth="yes"/>
      <point x="482" y="-100"/>
      <point x="394" y="-163"/>
      <point x="299" y="-161" type="curve" smooth="yes"/>
      <point x="297" y="-161" type="line" smooth="yes"/>
      <point x="220" y="-159"/>
      <point x="137" y="-128"/>
      <point x="110" y="-51" type="curve"/>
      <point x="61" y="-74" type="line"/>
      <point x="94" y="-172"/>
      <point x="191" y="-213"/>
      <point x="297" y="-213" type="curve" smooth="yes"/>
      <point x="299" y="-213" type="line" smooth="yes"/>
      <point x="437" y="-213"/>
      <point x="534" y="-136"/>
      <point x="535" y="-1" type="curve" smooth="yes"/>
      <point x="535" y="15" type="line"/>
      <point x="537" y="427" type="line"/>
      <point x="610" y="427" type="line"/>
      <point x="610" y="477" type="line"/>
      <point x="487" y="477" type="line"/>
    </contour>
    <contour>
      <point x="485" y="236" type="curve" smooth="yes"/>
      <point x="485" y="235" type="line" smooth="yes"/>
      <point x="485" y="120"/>
      <point x="411" y="54"/>
      <point x="298" y="54" type="curve" smooth="yes"/>
      <point x="241" y="54"/>
      <point x="196" y="70"/>
      <point x="161" y="102" type="curve" smooth="yes"/>
      <point x="126" y="133"/>
      <point x="108" y="178"/>
      <point x="108" y="235" type="curve" smooth="yes"/>
      <point x="108" y="292"/>
      <point x="125" y="338"/>
      <point x="160" y="371" type="curve" smooth="yes"/>
      <point x="195" y="404"/>
      <point x="240" y="420"/>
      <point x="296" y="420" type="curve" smooth="yes"/>
      <point x="411" y="420"/>
      <point x="485" y="350"/>
    </contour>
    <contour>
      <point x="221" y="586" type="line"/>
      <point x="330" y="687" type="line"/>
      <point x="439" y="586" type="line"/>
      <point x="474" y="616" type="line"/>
      <point x="330" y="750" type="line"/>
      <point x="186" y="616" type="line"/>
    </contour>
  </outline>
</glyph>
<glyph name="Hcircumflex" format="2">
  <advance width="749"/>
  <unicode hex="0124"/>
  <outline>
    <contour>
      <point x="187" y="427" type="line"/>
      <point x="187" y="700" type="line"/>
      <point x="262" y="700" type="line"/>
      <point x="262" y="750" type="line"/>
      <point x="52" y="750" type="line"/>
      <point x="52" y="700" type="line"/>
      <point x="127" y="700" type="line"/>
      <point x="127" y="50" type="line"/>
      <point x="52" y="50" type="line"/>
      <point x="52" y="0" type="line"/>
      <point x="262" y="0" type="line"/>
      <point x="262" y="50" type="line"/>
      <point x="187" y="50" type="line"/>
      <point x="187" y="375" type="line"/>
      <point x="562" y="375" type="line"/>
      <point x="562" y="50" type="line"/>
      <point x="487" y="50" type="line"/>
      <point x="487" y="0" type="line"/>
      <point x="697" y="0" type="line"/>
      <point x="697" y="50" type="line"/>
      <point x="622" y="50" type="line"/>
      <point x="622" y="700" type="line"/>
      <point x="697" y="700" type="line"/>
      <point x="697" y="750" type="line"/>
      <point x="487" y="750" type="line"/>
      <point x="487" y="700" type="line"/>
      <point x="562" y="700" type="line"/>
      <point x="562" y="427" type="line"/>
    </contour>
    <contour>
      <point x="267" y="830" type="line"/>
      <point x="376" y="931" type="line"/>
      <point x="485" y="830" type="line"/>
      <point x="520" y="860" type="line"/>
      <point x="376" y="994" type="line"/>
      <point x="232" y="860" type="line"/>
    </contour>
  </outline>
</glyph>
<glyph name="Itilde" format="2">
  <advance width="316"/>
  <unicode hex="0128"/>
  <outline>
    <contour>
      <point x="53" y="50" type="line"/>
      <point x="53" y="0" type="line"/>
      <point x="263" y="0" type="line"/>
      <point x="263" y="50" type="line"/>
      <point x="188" y="50" type="line"/>
      <point x="188" y="700" type="line"/>
      <point x="263" y="700" type="line"/>
      <point x="263" y="750" type="line"/>
      <point x="53" y="750" type="line"/>
      <point x="53" y="700" type="line"/>
      <point x="128" y="700" type="line"/>
      <point x="128" y="50" type="line"/>
    </contour>
    <contour>
      <point x="227" y="854" type="curve" smooth="yes"/>
      <point x="270" y="854"/>
      <point x="310" y="903"/>
      <point x="312" y="960" type="curve"/>
      <point x="267" y="966" type="line"/>
      <point x="263" y="933"/>
      <point x="248" y="903"/>
      <point x="224" y="903" type="curve" smooth="yes"/>
      <point x="210" y="903"/>
      <point x="199" y="910"/>
      <point x="177" y="928" type="curve" smooth="yes"/>
      <point x="153" y="948"/>
      <point x="128" y="967"/>
      <point x="89" y="967" type="curve" smooth="yes"/>
      <point x="46" y="967"/>
      <point x="6" y="923"/>
      <point x="4" y="866" type="curve"/>
      <point x="49" y="860" type="line"/>
      <point x="53" y="893"/>
      <point x="68" y="918"/>
      <point x="92" y="918" type="curve" smooth="yes"/>
      <point x="106" y="918"/>
      <point x="117" y="911"/>
      <point x="139" y="893" type="curve" smooth="yes"/>
      <point x="163" y="873"/>
      <point x="188" y="854"/>
    </contour>
  </outline>
</glyph>
<glyph name="iogonek" format="2">
  <advance width="297"/>
  <unicode hex="012F"/>
  <outline>
    <contour>
      <point x="38" y="0" type="line"/>
      <point x="264" y="0" type="line"/>
      <point x="264" y="51" type="line"/>
      <point x="181" y="51" type="line"/>
      <point x="181" y="475" type="line"/>
      <point x="38" y="475" type="line"/>
      <point x="38" y="423" type="line"/>
      <point x="121" y="423" type="line"/>
      <point x="121" y="51" type="line"/>
      <point x="38" y="51" type="line"/>
    </contour>
    <contour>
      <point x="141" y="614" type="curve" smooth="yes"/>
      <point x="168" y="614"/>
      <point x="190" y="637"/>
      <point x="190" y="666" type="curve" smooth="yes"/>
      <point x="190" y="694"/>
      <point x="168" y="718"/>
      <point x="141" y="718" type="curve" smooth="yes"/>
      <point x="112" y="718"/>
      <point x="90" y="694"/>
      <point x="90" y="666" type="curve" smooth="yes"/>
      <point x="90" y="637"/>
      <point x="112" y="614"/>
    </contour>
    <contour>
      <point x="174" y="-218" type="curve" smooth="yes"/>
      <point x="209" y="-209"/>
      <point x="251" y="-174"/>
      <point x="262" y="-160" type="curve"/>
      <point x="238" y="-132" type="line"/>
      <point x="221" y="-149"/>
      <point x="197" y="-169"/>
      <point x="166" y="-177" type="curve" smooth="yes"/>
      <point x="129" y="-186"/>
      <point x="103" y="-170"/>
      <point x="94" y="-140" type="curve" smooth="yes"/>
      <point x="79" y="-90"/>
      <point x="133" y="-28"/>
      <point x="200" y="10" type="curve"/>
      <point x="140" y="10" type="line"/>
      <point x="79" y="-29"/>
      <point x="34" y="-98"/>
      <point x="52" y="-161" type="curve" smooth="yes"/>
      <point x="67" y="-213"/>
      <point x="109" y="-237"/>
    </contour>
  </outline>
</glyph>
<glyph name="IJ" format="2">
  <advance width="316"/>
  <unicode hex="0132"/>
  <outline>
    <contour>
      <point x="53" y="50" type="line"/>
      <point x="53" y="0" type="line"/>
      <point x="263" y="0" type="line"/>
      <point x="263" y="50" type="line"/>
      <point x="188" y="50" type="line"/>
      <point x="188" y="700" type="line"/>
      <point x="263" y="700" type="line"/>
      <point x="263" y="750" type="line"/>
      <point x="53" y="750" type="line"/>
      <point x="53" y="700" type="line"/>
      <point x="128" y="700" type="line"/>
      <point x="128" y="50" type="line"/>
    </contour>
    <contour>
      <point x="202" y="-22" type="curve" smooth="yes"/>
      <point x="261" y="-22"/>
      <point x="306" y="-3"/>
      <point x="340" y="31" type="curve" smooth="yes"/>
      <point x="380" y="71"/>
      <point x="397" y="138"/>
      <point x="397" y="215" type="curve" smooth="yes"/>
      <point x="397" y="699" type="line"/>
      <point x="479" y="699" type="line"/>
      <point x="479" y="749" type="line"/>
      <point x="237" y="749" type="line"/>
      <point x="237" y="699" type="line"/>
      <point x="340" y="699" type="line"/>
      <point x="340" y="216" type="line" smooth="yes"/>
      <point x="340" y="149"/>
      <point x="327" y="99"/>
      <point x="298" y="70" type="curve" smooth="yes"/>
      <point x="273" y="45"/>
      <point x="240" y="32"/>
      <point x="202" y="32" type="curve" smooth="yes"/>
      <point x="130" y="32"/>
      <point x="88" y="80"/>
      <point x="84" y="114" type="curve"/>
      <point x="31" y="94" type="line"/>
      <point x="52" y="26"/>
      <point x="122" y="-22"/>
    </contour>
  </outline>
</glyph>
<glyph name="ij" format="2">
  <advance width="297"/>
  <unicode hex="0133"/>
  <outline>
    <contour>
      <point x="38" y="0" type="line"/>
      <point x="264" y="0" type="line"/>
      <point x="264" y="51" type="line"/>
      <point x="181" y="51" type="line"/>
      <point x="181" y="475" type="line"/>
      <point x="38" y="475" type="line"/>
      <point x="38" y="423" type="line"/>
      <point x="121" y="423" type="line"/>
      <point x="121" y="51" type="line"/>
      <point x="38" y="51" type="line"/>
    </contour>
    <contour>
      <point x="141" y="614" type="curve" smooth="yes"/>
      <point x="168" y="614"/>
      <point x="190" y="637"/>
      <point x="190" y="666" type="curve" smooth="yes"/>
      <point x="190" y="694"/>
      <point x="168" y="718"/>
      <point x="141" y="718" type="curve" smooth="yes"/>
      <point x="112" y="718"/>
      <point x="90" y="694"/>
      <point x="90" y="666" type="curve" smooth="yes"/>
      <point x="90" y="637"/>
      <point x="112" y="614"/>
    </contour>
    <contour>
      <point x="-53" y="-136" type="line"/>
      <point x="-43" y="-172"/>
      <point x="-11" y="-200"/>
      <point x="45" y="-200" type="curve" smooth="yes"/>
      <point x="103" y="-200"/>
      <point x="153" y="-170"/>
      <point x="176" y="-102" type="curve" smooth="yes"/>
      <point x="187" y="-68"/>
      <point x="194" y="-26"/>
      <point x="194" y="30" type="curve" smooth="yes"/>
      <point x="194" y="475" type="line"/>
      <point x="46" y="475" type="line"/>
      <point x="46" y="424" type="line"/>
      <point x="134" y="424" type="line"/>
      <point x="134" y="21" type="line" smooth="yes"/>
      <point x="134" y="-23"/>
      <point x="129" y="-58"/>
      <point x="122" y="-83" type="curve" smooth="yes"/>
      <point x="109" y="-131"/>
      <point x="81" y="-149"/>
      <point x="49" y="-149" type="curve" smooth="yes"/>
      <point x="42" y="-149"/>
      <point x="11" y="-151"/>
      <point x="-9" y="-116" type="curve"/>
    </contour>
    <contour>
      <point x="153" y="614" type="curve" smooth="yes"/>
      <point x="180" y="614"/>
      <point x="202" y="637"/>
      <point x="202" y="666" type="curve" smooth="yes"/>
      <point x="202" y="694"/>
      <point x="180" y="718"/>
      <point x="153" y="718" type="curve" smooth="yes"/>
      <point x="124" y="718"/>
      <point x="102" y="694"/>
      <point x="102" y="666" type="curve" smooth="yes"/>
      <point x="102" y="637"/>
      <point x="124" y="614"/>
    </contour>
  </outline>
</glyph>
<glyph name="Lacute" format="2">
  <advance width="578"/>
  <unicode hex="0139"/>
  <outline>
    <contour>
      <point x="39" y="50" type="line"/>
      <point x="39" y="0" type="line"/>
      <point x="509" y="0" type="line"/>
      <point x="509" y="152" type="line"/>
      <point x="459" y="152" type="line"/>
      <point x="459" y="51" type="line"/>
      <point x="174" y="51" type="line"/>
      <point x="174" y="700" type="line"/>
      <point x="249" y="700" type="line"/>
      <point x="249" y="750" type="line"/>
      <point x="39" y="750" type="line"/>
      <point x="39" y="700" type="line"/>
      <point x="114" y="700" type="line"/>
      <point x="114" y="50" type="line"/>
    </contour>
    <contour>
      <point x="133" y="860" type="line"/>
      <point x="271" y="999" type="line"/>
      <point x="194" y="999" type="line"/>
      <point x="83" y="860" type="line"/>
    </contour>
  </outline>
</glyph>
<glyph name="Lcaron" format="2">
  <advance width="578"/>
  <unicode hex="013D"/>
  <outline>
    <contour>
      <point x="39" y="50" type="line"/>
      <point x="39" y="0" type="line"/>
      <point x="509" y="0" type="line"/>
      <point x="509" y="152" type="line"/>
      <point x="459" y="152" type="line"/>
      <point x="459" y="51" type="line"/>
      <point x="174" y="51" type="line"/>
      <point x="174" y="700" type="line"/>
      <point x="249" y="700" type="line"/>
      <point x="249" y="750" type="line"/>
      <point x="39" y="750" type="line"/>
      <point x="39" y="700" type="line"/>
      <point x="114" y="700" type="line"/>
      <point x="114" y="50" type="line"/>
    </contour>
    <contour>
      <point x="158" y="897" type="line"/>
      <point x="76" y="999" type="line"/>
      <point x="12" y="999" type="line"/>
      <point x="134" y="860" type="line"/>
      <point x="182" y="860" type="line"/>
      <point x="305" y="999" type="line"/>
      <point x="240" y="999" type="line"/>
    </contour>
  </outline>
</glyph>
<glyph name="lcaron" format="2">
  <advance width="284"/>
  <unicode hex="013E"/>
  <outline>
    <contour>
      <point x="38" y="750" type="line"/>
      <point x="38" y="700" type="line"/>
      <point x="113" y="700" type="line"/>
      <point x="113" y="50" type="line"/>
      <point x="36" y="50" type="line"/>
      <point x="36" y="0" type="line"/>
      <point x="249" y="0" type="line"/>
      <point x="249" y="50" type="line"/>
      <point x="172" y="50" type="line"/>
      <point x="172" y="750" type="line"/>
    </contour>
    <contour>
      <point x="132" y="897" type="line"/>
      <point x="50" y="999" type="line"/>
      <point x="-14" y="999" type="line"/>
      <point x="108" y="860" type="line"/>
      <point x="156" y="860" type="line"/>
      <point x="279" y="999" type="line"/>
      <point x="214" y="999" type="line"/>
    </contour>
  </outline>
</glyph>
<glyph name="Nacute" format="2">
  <advance width="799"/>
  <unicode hex="0143"/>
  <outline>
    <contour>
      <point x="187" y="686" type="line"/>
      <point x="187" y="50" type="line"/>
      <point x="275" y="50" type="line"/>
      <point x="275" y="0" type="line"/>
      <point x="39" y="0" type="line"/>
      <point x="39" y="50" type="line"/>
      <point x="127" y="50" type="line"/>
      <point x="127" y="700" type="line"/>
      <point x="39" y="700" type="line"/>
      <point x="39" y="750" type="line"/>
      <point x="216" y="750" type="line"/>
      <point x="597" y="99" type="line"/>
      <point x="599" y="99" type="line"/>
      <point x="599" y="700" type="line"/>
      <point x="511" y="700" type="line"/>
      <point x="511" y="750" type="line"/>
      <point x="747" y="750" type="line"/>
      <point x="747" y="700" type="line"/>
      <point x="659" y="700" type="line"/>
      <point x="659" y="0" type="line"/>
      <point x="597" y="0" type="line"/>
      <point x="189" y="686" type="line"/>
    </contour>
    <contour>
      <point x="362" y="860" type="line"/>
      <point x="500" y="999" type="line"/>
      <point x="423" y="999" type="line"/>
      <point x="312" y="860" type="line"/>
    </contour>
  </outline>
</glyph>
<glyph name="Ncaron" format="2">
  <advance width="799"/>
  <unicode hex="0147"/>
  <outline>
    <contour>
      <point x="187" y="686" type="line"/>
      <point x="187" y="50" type="line"/>
      <point x="275" y="50" type="line"/>
      <point x="275" y="0" type="line"/>
      <point x="39" y="0" type="line"/>
      <point x="39" y="50" type="line"/>
      <point x="127" y="50" type="line"/>
      <point x="127" y="700" type="line"/>
      <point x="39" y="700" type="line"/>
      <point x="39" y="750" type="line"/>
      <point x="216" y="750" type="line"/>
      <point x="597" y="99" type="line"/>
      <point x="599" y="99" type="line"/>
      <point x="599" y="700" type="line"/>
      <point x="511" y="700" type="line"/>
      <point x="511" y="750" type="line"/>
      <point x="747" y="750" type="line"/>
      <point x="747" y="700" type="line"/>
      <point x="659" y="700" type="line"/>
      <point x="659" y="0" type="line"/>
      <point x="597" y="0" type="line"/>
      <point x="189" y="686" type="line"/>
    </contour>
    <contour>
      <point x="406" y="897" type="line"/>
      <point x="324" y="999" type="line"/>
      <point x="260" y="999" type="line"/>
      <point x="382" y="860" type="line"/>
      <point x="430" y="860" type="line"/>
      <point x="553" y="999" type="line"/>
      <point x="488" y="999" type="line"/>
    </contour>
  </outline>
</glyph>
<glyph name="eng" format="2">
  <advance width="607"/>
  <unicode hex="014B"/>
  <outline>
    <contour>
      <point x="46" y="475" type="line"/>
      <point x="46" y="426" type="line"/>
      <point x="119" y="426" type="line"/>
      <point x="119" y="50" type="line"/>
      <point x="45" y="50" type="line"/>
      <point x="45" y="0" type="line"/>
      <point x="256" y="0" type="line"/>
      <point x="256" y="50" type="line"/>
      <point x="179" y="50" type="line"/>
      <point x="179" y="296" type="line"/>
      <point x="179" y="296"/>
      <point x="247" y="456"/>
      <point x="379" y="420" type="curve" smooth="yes"/>
      <point x="413" y="411"/>
      <point x="445" y="366"/>
      <point x="446" y="317" type="curve" smooth="yes"/>
      <point x="446" y="50" type="line"/>
      <point x="369" y="50" type="line"/>
      <point x="369" y="0" type="line"/>
      <point x="577" y="0" type="line"/>
      <point x="577" y="50" type="line"/>
      <point x="506" y="50" type="line"/>
      <point x="506" y="318" type="line" smooth="yes"/>
      <point x="506" y="398"/>
      <point x="456" y="477"/>
      <point x="333" y="477" type="curve" smooth="yes"/>
      <point x="221" y="477"/>
      <point x="177" y="378"/>
      <point x="177" y="378" type="curve"/>
      <point x="177" y="475" type="line"/>
    </contour>
    <contour>
      <point x="500" y="-136" type="line"/>
      <point x="510" y="-172"/>
      <point x="542" y="-200"/>
      <point x="598" y="-200" type="curve" smooth="yes"/>
      <point x="656" y="-200"/>
      <point x="704" y="-170"/>
      <point x="727" y="-102" type="curve" smooth="yes"/>
      <point x="738" y="-68"/>
      <point x="745" y="-26"/>
      <point x="745" y="30" type="curve" smooth="yes"/>
      <point x="745" y="475" type="line"/>
      <point x="597" y="475" type="line"/>
      <point x="597" y="424" type="line"/>
      <point x="685" y="424" type="line"/>
      <point x="685" y="21" type="line" smooth="yes"/>
      <point x="685" y="-23"/>
      <point x="680" y="-58"/>
      <point x="673" y="-83" type="curve" smooth="yes"/>
      <point x="660" y="-131"/>
      <point x="634" y="-149"/>
      <point x="602" y="-149" type="curve" smooth="yes"/>
      <point x="595" y="-149"/>
      <point x="564" y="-151"/>
      <point x="544" y="-116" type="curve"/>
    </contour>
  </outline>
</glyph>
<glyph name="omacron" format="2">
  <advance width="584"/>
  <unicode hex="014D"/>
  <outline>
    <contour>
      <point x="292" y="-6" type="curve" smooth="yes"/>
      <point x="432" y="-6"/>
      <point x="536" y="102"/>
      <point x="536" y="239" type="curve" smooth="yes"/>
      <point x="536" y="374"/>
      <point x="432" y="481"/>
      <point x="292" y="481" type="curve" smooth="yes"/>
      <point x="152" y="481"/>
      <point x="48" y="374"/>
      <point x="48" y="239" type="curve" smooth="yes"/>
      <point x="48" y="102"/>
      <point x="152" y="-6"/>
    </contour>
    <contour>
      <point x="292" y="46" type="curve" smooth="yes"/>
      <point x="188" y="46"/>
      <point x="107" y="125"/>
      <point x="107" y="239" type="curve" smooth="yes"/>
      <point x="107" y="350"/>
      <point x="188" y="429"/>
      <point x="292" y="429" type="curve" smooth="yes"/>
      <point x="395" y="429"/>
      <point x="477" y="350"/>
      <point x="477" y="239" type="curve" smooth="yes"/>
      <point x="477" y="125"/>
      <point x="395" y="46"/>
    </contour>
    <contour>
      <point x="156" y="604" type="line"/>
      <point x="431" y="604" type="line"/>
      <point x="431" y="650" type="line"/>
      <point x="156" y="650" type="line"/>
    </contour>
  </outline>
</glyph>
<glyph name="oe" format="2">
  <advance width="884"/>
  <unicode hex="0153"/>
  <outline>
    <contour>
      <point x="260" y="48" type="curve" smooth="yes"/>
      <point x="156" y="48"/>
      <point x="84" y="127"/>
      <point x="84" y="239" type="curve" smooth="yes"/>
      <point x="84" y="350"/>
      <point x="156" y="430"/>
      <point x="260" y="430" type="curve" smooth="yes"/>
      <point x="364" y="430"/>
      <point x="436" y="350"/>
      <point x="436" y="239" type="curve" smooth="yes"/>
      <point x="436" y="127"/>
      <point x="364" y="48"/>
    </contour>
    <contour>
      <point x="647" y="430" type="curve" smooth="yes"/>
      <point x="745" y="430"/>
      <point x="796" y="366"/>
      <point x="802" y="275" type="curve"/>
      <point x="488" y="275" type="line"/>
      <point x="500" y="370"/>
      <point x="566" y="430"/>
    </contour>
    <contour>
      <point x="849" y="113" type="line"/>
      <point x="801" y="129" type="line"/>
    </contour>
    <contour>
      <point x="678" y="48" type="curve" smooth="yes"/>
      <point x="555" y="43"/>
      <point x="496" y="108"/>
      <point x="487" y="225" type="curve"/>
      <point x="857" y="225" type="line"/>
      <point x="859" y="235"/>
      <point x="860" y="245"/>
      <point x="860" y="262" type="curve" smooth="yes"/>
      <point x="860" y="375"/>
      <point x="787" y="481"/>
      <point x="653" y="481" type="curve" smooth="yes"/>
      <point x="557" y="481"/>
      <point x="493" y="427"/>
      <point x="461" y="354" type="curve"/>
      <point x="427" y="430"/>
      <point x="356" y="481"/>
      <point x="260" y="481" type="curve" smooth="yes"/>
      <point x="119" y="481"/>
      <point x="24" y="373"/>
      <point x="24" y="239" type="curve" smooth="yes"/>
      <point x="24" y="105"/>
      <point x="119" y="-3"/>
      <point x="260" y="-3" type="curve" smooth="yes"/>
      <point x="356" y="-3"/>
      <point x="426" y="48"/>
      <point x="461" y="122" type="curve"/>
      <point x="496" y="46"/>
      <point x="560" y="-3"/>
      <point x="670" y="-3" type="curve" smooth="yes"/>
      <point x="716" y="-3"/>
      <point x="809" y="7"/>
      <point x="849" y="113" type="curve"/>
      <point x="801" y="129" type="line"/>
      <point x="768" y="72"/>
      <point x="738" y="51"/>
    </contour>
  </outline>
</glyph>
<glyph name="Tcaron" format="2">
  <advance width="624"/>
  <unicode hex="0164"/>
  <outline>
    <contour>
      <point x="519" y="700" type="line"/>
      <point x="519" y="553" type="line"/>
      <point x="569" y="553" type="line"/>
      <point x="569" y="750" type="line"/>
      <point x="45" y="750" type="line"/>
      <point x="45" y="553" type="line"/>
      <point x="95" y="553" type="line"/>
      <point x="95" y="700" type="line"/>
      <point x="277" y="700" type="line"/>
      <point x="277" y="50" type="line"/>
      <point x="200" y="50" type="line"/>
      <point x="200" y="0" type="line"/>
      <point x="414" y="0" type="line"/>
      <point x="414" y="50" type="line"/>
      <point x="337" y="50" type="line"/>
      <point x="337" y="700" type="line"/>
    </contour>
    <contour>
      <point x="311" y="897" type="line"/>
      <point x="229" y="999" type="line"/>
      <point x="165" y="999" type="line"/>
      <point x="287" y="860" type="line"/>
      <point x="335" y="860" type="line"/>
      <point x="458" y="999" type="line"/>
      <point x="393" y="999" type="line"/>
    </contour>
  </outline>
</glyph>
<glyph name="utilde" format="2">
  <advance width="594"/>
  <unicode hex="0169"/>
  <outline>
    <contour>
      <point x="561" y="0" type="line"/>
      <point x="561" y="49" type="line"/>
      <point x="488" y="49" type="line"/>
      <point x="488" y="425" type="line"/>
      <point x="488" y="475" type="line"/>
      <point x="351" y="475" type="line"/>
      <point x="351" y="425" type="line"/>
      <point x="428" y="425" type="line"/>
      <point x="428" y="174" type="line"/>
      <point x="428" y="174"/>
      <point x="360" y="19"/>
      <point x="228" y="55" type="curve" smooth="yes"/>
      <point x="194" y="64"/>
      <point x="162" y="94"/>
      <point x="161" y="143" type="curve" smooth="yes"/>
      <point x="161" y="425" type="line"/>
      <point x="161" y="475" type="line"/>
      <point x="30" y="475" type="line"/>
      <point x="30" y="425" type="line"/>
      <point x="101" y="425" type="line"/>
      <point x="101" y="125" type="line" smooth="yes"/>
      <point x="101" y="76"/>
      <point x="151" y="-2"/>
      <point x="274" y="-2" type="curve" smooth="yes"/>
      <point x="386" y="-2"/>
      <point x="430" y="92"/>
      <point x="430" y="92" type="curve"/>
      <point x="430" y="0" type="line"/>
    </contour>
    <contour>
      <point x="334" y="594" type="curve" smooth="yes"/>
      <point x="377" y="594"/>
      <point x="417" y="643"/>
      <point x="419" y="700" type="curve"/>
      <point x="374" y="706" type="line"/>
      <point x="370" y="673"/>
      <point x="355" y="643"/>
      <point x="331" y="643" type="curve" smooth="yes"/>
      <point x="317" y="643"/>
      <point x="306" y="650"/>
      <point x="284" y="668" type="curve" smooth="yes"/>
      <point x="260" y="688"/>
      <point x="235" y="707"/>
      <point x="196" y="707" type="curve" smooth="yes"/>
      <point x="153" y="707"/>
      <point x="113" y="663"/>
      <point x="111" y="606" type="curve"/>
      <point x="156" y="600" type="line"/>
      <point x="160" y="633"/>
      <point x="175" y="658"/>
      <point x="199" y="658" type="curve" smooth="yes"/>
      <point x="213" y="658"/>
      <point x="224" y="651"/>
      <point x="246" y="633" type="curve" smooth="yes"/>
      <point x="270" y="613"/>
      <point x="295" y="594"/>
    </contour>
  </outline>
</glyph>
<glyph name="uring" format="2">
  <advance width="594"/>
  <unicode hex="016F"/>
  <outline>
    <contour>
      <point x="561" y="0" type="line"/>
      <point x="561" y="49" type="line"/>
      <point x="488" y="49" type="line"/>
      <point x="488" y="425" type="line"/>
      <point x="488" y="475" type="line"/>
      <point x="351" y="475" type="line"/>
      <point x="351" y="425" type="line"/>
      <point x="428" y="425" type="line"/>
      <point x="428" y="174" type="line"/>
      <point x="428" y="174"/>
      <point x="360" y="19"/>
      <point x="228" y="55" type="curve" smooth="yes"/>
      <point x="194" y="64"/>
      <point x="162" y="94"/>
      <point x="161" y="143" type="curve" smooth="yes"/>
      <point x="161" y="425" type="line"/>
      <point x="161" y="475" type="line"/>
      <point x="30" y="475" type="line"/>
      <point x="30" y="425" type="line"/>
      <point x="101" y="425" type="line"/>
      <point x="101" y="125" type="line" smooth="yes"/>
      <point x="101" y="76"/>
      <point x="151" y="-2"/>
      <point x="274" y="-2" type="curve" smooth="yes"/>
      <point x="386" y="-2"/>
      <point x="430" y="92"/>
      <point x="430" y="92" type="curve"/>
      <point x="430" y="0" type="line"/>
    </contour>
    <contour>
      <point x="282" y="575" type="curve" smooth="yes"/>
      <point x="327" y="575"/>
      <point x="367" y="615"/>
      <point x="367" y="661" type="curve" smooth="yes"/>
      <point x="367" y="707"/>
      <point x="327" y="746"/>
      <point x="282" y="746" type="curve" smooth="yes"/>
      <point x="235" y="746"/>
      <point x="196" y="707"/>
      <point x="196" y="661" type="curve" smooth="yes"/>
      <point x="196" y="615"/>
      <point x="235" y="575"/>
    </contour>
    <contour>
      <point x="282" y="606" type="curve" smooth="yes"/>
      <point x="250" y="606"/>
      <point x="227" y="630"/>
      <point x="227" y="661" type="curve" smooth="yes"/>
      <point x="227" y="691"/>
      <point x="250" y="715"/>
      <point x="282" y="715" type="curve" smooth="yes"/>
      <point x="311" y="715"/>
      <point x="336" y="691"/>
      <point x="336" y="661" type="curve" smooth="yes"/>
      <point x="336" y="630"/>
      <point x="311" y="606"/>
    </contour>
  </outline>
</glyph>
<glyph name="Zacute" format="2">
  <advance width="599"/>
  <unicode hex="0179"/>
  <outline>
    <contour>
      <point x="102" y="700" type="line"/>
      <point x="102" y="557" type="line"/>
      <point x="46" y="557" type="line"/>
      <point x="46" y="750" type="line"/>
      <point x="554" y="750" type="line"/>
      <point x="554" y="700" type="line"/>
      <point x="113" y="50" type="line"/>
      <point x="493" y="50" type="line"/>
      <point x="493" y="199" type="line"/>
      <point x="549" y="199" type="line"/>
      <point x="549" y="0" type="line"/>
      <point x="45" y="0" type="line"/>
      <point x="45" y="50" type="line"/>
      <point x="485" y="700" type="line"/>
    </contour>
    <contour>
      <point x="255" y="860" type="line"/>
      <point x="393" y="999" type="line"/>
      <point x="316" y="999" type="line"/>
      <point x="205" y="860" type="line"/>
    </contour>
  </outline>
</glyph>
<glyph name="zacute" format="2">
  <advance width="481"/>
  <unicode hex="017A"/>
  <outline>
    <contour>
      <point x="437" y="420" type="line"/>
      <point x="115" y="55" type="line"/>
      <point x="390" y="55" type="line"/>
      <point x="390" y="136" type="line"/>
      <point x="442" y="136" type="line"/>
      <point x="442" y="0" type="line"/>
      <point x="40" y="0" type="line"/>
      <point x="40" y="54" type="line"/>
      <point x="356" y="420" type="line"/>
      <point x="100" y="420" type="line"/>
      <point x="100" y="344" type="line"/>
      <point x="47" y="344" type="line"/>
      <point x="47" y="475" type="line"/>
      <point x="437" y="475" type="line"/>
    </contour>
    <contour>
      <point x="197" y="575" type="line"/>
      <point x="335" y="714" type="line"/>
      <point x="258" y="714" type="line"/>
      <point x="147" y="575" type="line"/>
    </contour>
  </outline>
</glyph>
<glyph name="uni01EB" format="2">
  <advance width="584"/>
  <unicode hex="01EB"/>
  <outline>
    <contour>
      <point x="292" y="-6" type="curve" smooth="yes"/>
      <point x="432" y="-6"/>
      <point x="536" y="102"/>
      <point x="536" y="239" type="curve" smooth="yes"/>
      <point x="536" y="374"/>
      <point x="432" y="481"/>
      <point x="292" y="481" type="curve" smooth="yes"/>
      <point x="152" y="481"/>
      <point x="48" y="374"/>
      <point x="48" y="239" type="curve" smooth="yes"/>
      <point x="48" y="102"/>
      <point x="152" y="-6"/>
    </contour>
    <contour>
      <point x="292" y="46" type="curve" smooth="yes"/>
      <point x="188" y="46"/>
      <point x="107" y="125"/>
      <point x="107" y="239" type="curve" smooth="yes"/>
      <point x="107" y="350"/>
      <point x="188" y="429"/>
      <point x="292" y="429" type="curve" smooth="yes"/>
      <point x="395" y="429"/>
      <point x="477" y="350"/>
      <point x="477" y="239" type="curve" smooth="yes"/>
      <point x="477" y="125"/>
      <point x="395" y="46"/>
    </contour>
    <contour>
      <point x="328" y="-194" type="curve" smooth="yes"/>
      <point x="363" y="-185"/>
      <point x="405" y="-150"/>
      <point x="416" y="-136" type="curve"/>
      <point x="392" y="-108" type="line"/>
      <point x="375" y="-125"/>
      <point x="351" y="-145"/>
      <point x="320" y="-153" type="curve" smooth="yes"/>
      <point x="283" y="-162"/>
      <point x="257" y="-146"/>
      <point x="248" y="-116" type="curve" smooth="yes"/>
      <point x="233" y="-66"/>
      <point x="287" y="-4"/>
      <point x="354" y="34" type="curve"/>
      <point x="294" y="34" type="line"/>
      <point x="233" y="-5"/>
      <point x="188" y="-74"/>
      <point x="206" y="-137" type="curve" smooth="yes"/>
      <point x="221" y="-189"/>
      <point x="263" y="-213"/>
    </contour>
  </outline>
</glyph>
<glyph name="oring" format="2">
  <advance width="584"/>
  <unicode hex="01FE"/>
  <outline>
    <contour>
      <point x="292" y="-6" type="curve" smooth="yes"/>
      <point x="432" y="-6"/>
      <point x="536" y="102"/>
      <point x="536" y="239" type="curve" smooth="yes"/>
      <point x="536" y="374"/>
      <point x="432" y="481"/>
      <point x="292" y="481" type="curve" smooth="yes"/>
      <point x="152" y="481"/>
      <point x="48" y="374"/>
      <point x="48" y="239" type="curve" smooth="yes"/>
      <point x="48" y="102"/>
      <point x="152" y="-6"/>
    </contour>
    <contour>
      <point x="292" y="46" type="curve" smooth="yes"/>
      <point x="188" y="46"/>
      <point x="107" y="125"/>
      <point x="107" y="239" type="curve" smooth="yes"/>
      <point x="107" y="350"/>
      <point x="188" y="429"/>
      <point x="292" y="429" type="curve" smooth="yes"/>
      <point x="395" y="429"/>
      <point x="477" y="350"/>
      <point x="477" y="239" type="curve" smooth="yes"/>
      <point x="477" y="125"/>
      <point x="395" y="46"/>
    </contour>
    <contour>
      <point x="289" y="574" type="curve" smooth="yes"/>
      <point x="334" y="574"/>
      <point x="374" y="614"/>
      <point x="374" y="660" type="curve" smooth="yes"/>
      <point x="374" y="706"/>
      <point x="334" y="745"/>
      <point x="289" y="745" type="curve" smooth="yes"/>
      <point x="242" y="745"/>
      <point x="203" y="706"/>
      <point x="203" y="660" type="curve" smooth="yes"/>
      <point x="203" y="614"/>
      <point x="242" y="574"/>
    </contour>
    <contour>
      <point x="289" y="605" type="curve" smooth="yes"/>
      <point x="257" y="605"/>
      <point x="234" y="629"/>
      <point x="234" y="660" type="curve" smooth="yes"/>
      <point x="234" y="690"/>
      <point x="257" y="714"/>
      <point x="289" y="714" type="curve" smooth="yes"/>
      <point x="318" y="714"/>
      <point x="343" y="690"/>
      <point x="343" y="660" type="curve" smooth="yes"/>
      <point x="343" y="629"/>
      <point x="318" y="605"/>
    </contour>
  </outline>
</glyph>
<glyph name="circumflex" format="2">
  <advance width="278"/>
  <unicode hex="02C6"/>
  <outline>
    <contour>
      <point x="31" y="781" type="line"/>
      <point x="140" y="882" type="line"/>
      <point x="249" y="781" type="line"/>
      <point x="284" y="811" type="line"/>
      <point x="140" y="945" type="line"/>
      <point x="-4" y="811" type="line"/>
    </contour>
  </outline>
</glyph>
<glyph name="breve" format="2">
  <advance width="277"/>
  <unicode hex="02D8"/>
  <outline>
    <contour>
      <point x="134" y="640" type="line" smooth="yes"/>
      <point x="84" y="641"/>
      <point x="49" y="663"/>
      <point x="41" y="706" type="curve"/>
      <point x="0" y="700" type="line"/>
      <point x="11" y="633"/>
      <point x="50" y="598"/>
      <point x="134" y="597" type="curve" smooth="yes"/>
      <point x="143" y="597" type="line" smooth="yes"/>
      <point x="226" y="598"/>
      <point x="266" y="633"/>
      <point x="277" y="700" type="curve"/>
      <point x="236" y="706" type="line"/>
      <point x="228" y="663"/>
      <point x="193" y="641"/>
      <point x="143" y="640" type="curve"/>
    </contour>
  </outline>
</glyph>
<glyph name="ring" format="2">
  <advance width="278"/>
  <unicode hex="02DA"/>
  <outline>
    <contour>
      <point x="136" y="542" type="curve" smooth="yes"/>
      <point x="181" y="542"/>
      <point x="221" y="582"/>
      <point x="221" y="628" type="curve" smooth="yes"/>
      <point x="221" y="674"/>
      <point x="181" y="713"/>
      <point x="136" y="713" type="curve" smooth="yes"/>
      <point x="89" y="713"/>
      <point x="50" y="674"/>
      <point x="50" y="628" type="curve" smooth="yes"/>
      <point x="50" y="582"/>
      <point x="89" y="542"/>
    </contour>
    <contour>
      <point x="136" y="573" type="curve" smooth="yes"/>
      <point x="104" y="573"/>
      <point x="81" y="597"/>
      <point x="81" y="628" type="curve" smooth="yes"/>
      <point x="81" y="658"/>
      <point x="104" y="682"/>
      <point x="136" y="682" type="curve" smooth="yes"/>
      <point x="165" y="682"/>
      <point x="190" y="658"/>
      <point x="190" y="628" type="curve" smooth="yes"/>
      <point x="190" y="597"/>
      <point x="165" y="573"/>
    </contour>
  </outline>
</glyph>
<glyph name="ogonek" format="2">
  <advance width="282"/>
  <unicode hex="02DB"/>
  <outline>
    <contour>
      <point x="168" y="-227" type="curve" smooth="yes"/>
      <point x="203" y="-218"/>
      <point x="245" y="-183"/>
      <point x="256" y="-169" type="curve"/>
      <point x="232" y="-141" type="line"/>
      <point x="215" y="-158"/>
      <point x="191" y="-178"/>
      <point x="160" y="-186" type="curve" smooth="yes"/>
      <point x="123" y="-195"/>
      <point x="97" y="-179"/>
      <point x="88" y="-149" type="curve" smooth="yes"/>
      <point x="73" y="-99"/>
      <point x="127" y="-37"/>
      <point x="194" y="1" type="curve"/>
      <point x="134" y="1" type="line"/>
      <point x="73" y="-38"/>
      <point x="28" y="-107"/>
      <point x="46" y="-170" type="curve" smooth="yes"/>
      <point x="61" y="-222"/>
      <point x="103" y="-246"/>
    </contour>
  </outline>
</glyph>
<glyph name="tilde" format="2">
  <advance width="278"/>
  <unicode hex="02DC"/>
  <outline>
    <contour>
      <point x="208" y="650" type="curve" smooth="yes"/>
      <point x="251" y="650"/>
      <point x="291" y="699"/>
      <point x="293" y="756" type="curve"/>
      <point x="248" y="762" type="line"/>
      <point x="244" y="729"/>
      <point x="229" y="699"/>
      <point x="205" y="699" type="curve" smooth="yes"/>
      <point x="191" y="699"/>
      <point x="180" y="706"/>
      <point x="158" y="724" type="curve" smooth="yes"/>
      <point x="134" y="744"/>
      <point x="109" y="763"/>
      <point x="70" y="763" type="curve" smooth="yes"/>
      <point x="27" y="763"/>
      <point x="-13" y="719"/>
      <point x="-15" y="662" type="curve"/>
      <point x="30" y="656" type="line"/>
      <point x="34" y="689"/>
      <point x="49" y="714"/>
      <point x="73" y="714" type="curve" smooth="yes"/>
      <point x="87" y="714"/>
      <point x="98" y="707"/>
      <point x="120" y="689" type="curve" smooth="yes"/>
      <point x="144" y="669"/>
      <point x="169" y="650"/>
    </contour>
  </outline>
</glyph>
<glyph name="hungarumlaut" format="2">
  <advance width="278"/>
  <unicode hex="02DD"/>
  <outline>
    <contour>
      <point x="181" y="734" type="line"/>
      <point x="104" y="734" type="line"/>
      <point x="8" y="595" type="line"/>
      <point x="58" y="595" type="line"/>
    </contour>
    <contour>
      <point x="335" y="734" type="line"/>
      <point x="258" y="734" type="line"/>
      <point x="147" y="595" type="line"/>
      <point x="197" y="595" type="line"/>
    </contour>
  </outline>
</glyph>
<glyph name="mu" format="2">
  <advance width="611"/>
  <unicode hex="03BC"/>
  <outline>
    <contour>
      <point x="452" y="-1" type="line"/>
      <point x="586" y="-1" type="line"/>
      <point x="586" y="46" type="line"/>
      <point x="505" y="46" type="line"/>
      <point x="505" y="475" type="line"/>
      <point x="370" y="475" type="line"/>
      <point x="370" y="427" type="line"/>
      <point x="452" y="427" type="line"/>
      <point x="452" y="144" type="line"/>
      <point x="393" y="86"/>
      <point x="338" y="35"/>
      <point x="257" y="35" type="curve" smooth="yes"/>
      <point x="209" y="35"/>
      <point x="159" y="61"/>
      <point x="159" y="130" type="curve" smooth="yes"/>
      <point x="159" y="475" type="line"/>
      <point x="23" y="475" type="line"/>
      <point x="23" y="427" type="line"/>
      <point x="107" y="427" type="line"/>
      <point x="107" y="-145" type="line"/>
      <point x="23" y="-145" type="line"/>
      <point x="23" y="-192" type="line"/>
      <point x="159" y="-192" type="line"/>
      <point x="159" y="14" type="line"/>
      <point x="181" y="-2"/>
      <point x="212" y="-11"/>
      <point x="248" y="-11" type="curve" smooth="yes"/>
      <point x="334" y="-11"/>
      <point x="403" y="31"/>
      <point x="452" y="88" type="curve"/>
    </contour>
  </outline>
</glyph>
<glyph name="quoteleft" format="2">
  <advance width="166"/>
  <unicode hex="2018"/>
  <outline>
    <contour>
      <point x="153" y="538" type="line"/>
      <point x="97" y="538" type="line"/>
      <point x="31" y="750" type="line"/>
      <point x="87" y="750" type="line"/>
    </contour>
  </outline>
</glyph>
<glyph name="quoteright" format="2">
  <advance width="166"/>
  <unicode hex="2019"/>
  <outline>
    <contour>
      <point x="13" y="538" type="line"/>
      <point x="79" y="750" type="line"/>
      <point x="135" y="750" type="line"/>
      <point x="69" y="538" type="line"/>
    </contour>
  </outline>
</glyph>
<glyph name="twothirds" format="2">
  <advance width="533"/>
  <unicode hex="2154"/>
  <outline>
    <contour>
      <point x="484" y="0" type="line"/>
      <point x="49" y="0" type="line"/>
      <point x="49" y="54" type="line"/>
      <point x="305" y="362" type="line" smooth="yes"/>
      <point x="313" y="371"/>
      <point x="323" y="382"/>
      <point x="332" y="394" type="curve" smooth="yes"/>
      <point x="371" y="445"/>
      <point x="404" y="485"/>
      <point x="408" y="552" type="curve"/>
      <point x="408" y="556"/>
      <point x="408" y="559"/>
      <point x="408" y="563" type="curve" smooth="yes"/>
      <point x="408" y="655"/>
      <point x="350" y="702"/>
      <point x="262" y="702" type="curve" smooth="yes"/>
      <point x="172" y="702"/>
      <point x="103" y="635"/>
      <point x="103" y="549" type="curve" smooth="yes"/>
      <point x="101" y="501" type="line"/>
      <point x="50" y="501" type="line"/>
      <point x="50" y="541" type="line" smooth="yes"/>
      <point x="50" y="664"/>
      <point x="135" y="750"/>
      <point x="261" y="750" type="curve" smooth="yes"/>
      <point x="314" y="750"/>
      <point x="361" y="734"/>
      <point x="402" y="702" type="curve" smooth="yes"/>
      <point x="443" y="669"/>
      <point x="463" y="624"/>
      <point x="463" y="567" type="curve" smooth="yes"/>
      <point x="463" y="483"/>
      <point x="410" y="403"/>
      <point x="354" y="333" type="curve" smooth="yes"/>
      <point x="331" y="306"/>
      <point x="310" y="282"/>
      <point x="290" y="259" type="curve" smooth="yes"/>
      <point x="120" y="54" type="line"/>
      <point x="430" y="54" type="line"/>
      <point x="430" y="181" type="line"/>
      <point x="484" y="181" type="line"/>
    </contour>
    <contour>
      <point x="133" y="-12" type="line"/>
      <point x="329" y="311" type="line"/>
      <point x="522" y="628" type="line"/>
      <point x="489" y="648" type="line"/>
      <point x="296" y="331" type="line"/>
      <point x="100" y="8" type="line"/>
    </contour>
    <contour>
      <point x="56" y="587" type="line"/>
      <point x="109" y="577" type="line"/>
    </contour>
    <contour>
      <point x="43" y="167" type="line"/>
      <point x="61" y="69"/>
      <point x="135" y="-1"/>
      <point x="251" y="-1" type="curve" smooth="yes"/>
      <point x="366" y="-1"/>
      <point x="456" y="83"/>
      <point x="456" y="209" type="curve" smooth="yes"/>
      <point x="456" y="296"/>
      <point x="411" y="359"/>
      <point x="329" y="389" type="curve"/>
      <point x="403" y="417"/>
      <point x="452" y="475"/>
      <point x="452" y="558" type="curve" smooth="yes"/>
      <point x="452" y="660"/>
      <point x="364" y="750"/>
      <point x="251" y="750" type="curve" smooth="yes"/>
      <point x="148" y="750"/>
      <point x="76" y="688"/>
      <point x="56" y="587" type="curve"/>
      <point x="109" y="577" type="line"/>
      <point x="123" y="643"/>
      <point x="167" y="700"/>
      <point x="251" y="700" type="curve" smooth="yes"/>
      <point x="331" y="700"/>
      <point x="396" y="648"/>
      <point x="396" y="554" type="curve" smooth="yes"/>
      <point x="396" y="484"/>
      <point x="345" y="429"/>
      <point x="280" y="415" type="curve" smooth="yes"/>
      <point x="257" y="410"/>
      <point x="233" y="409"/>
      <point x="210" y="409" type="curve"/>
      <point x="210" y="362" type="line"/>
      <point x="224" y="362"/>
      <point x="244" y="361"/>
      <point x="265" y="359" type="curve" smooth="yes"/>
      <point x="343" y="351"/>
      <point x="400" y="300"/>
      <point x="400" y="206" type="curve" smooth="yes"/>
      <point x="400" y="114"/>
      <point x="339" y="49"/>
      <point x="251" y="49" type="curve" smooth="yes"/>
      <point x="160" y="49"/>
      <point x="106" y="105"/>
      <point x="94" y="183" type="curve"/>
    </contour>
    <contour>
      <point x="43" y="167" type="line"/>
      <point x="94" y="183" type="line"/>
    </contour>
  </outline>
</glyph>
<glyph name="onesixth" format="2">
  <advance width="339"/>
  <unicode hex="2159"/>
  <outline>
    <contour>
      <point x="307" y="0" type="line"/>
      <point x="307" y="50" type="line"/>
      <point x="216" y="50" type="line"/>
      <point x="216" y="750" type="line"/>
      <point x="155" y="750" type="line"/>
      <point x="67" y="718" type="line"/>
      <point x="67" y="670" type="line"/>
      <point x="155" y="689" type="line"/>
      <point x="155" y="50" type="line"/>
      <point x="64" y="50" type="line"/>
      <point x="64" y="0" type="line"/>
    </contour>
    <contour>
      <point x="133" y="-12" type="line"/>
      <point x="329" y="311" type="line"/>
      <point x="522" y="628" type="line"/>
      <point x="489" y="648" type="line"/>
      <point x="296" y="331" type="line"/>
      <point x="100" y="8" type="line"/>
    </contour>
    <contour>
      <point x="291" y="414" type="curve" smooth="yes"/>
      <point x="341" y="414"/>
      <point x="441" y="371"/>
      <point x="441" y="235" type="curve" smooth="yes"/>
      <point x="441" y="144"/>
      <point x="388" y="45"/>
      <point x="286" y="45" type="curve" smooth="yes"/>
      <point x="182" y="45"/>
      <point x="113" y="126"/>
      <point x="113" y="227" type="curve" smooth="yes"/>
      <point x="113" y="334"/>
      <point x="180" y="414"/>
    </contour>
    <contour>
      <point x="466" y="600" type="line"/>
      <point x="458" y="695"/>
      <point x="378" y="756"/>
      <point x="279" y="756" type="curve" smooth="yes"/>
      <point x="133" y="756"/>
      <point x="56" y="619"/>
      <point x="56" y="463" type="curve" smooth="yes"/>
      <point x="56" y="241" type="line" smooth="yes"/>
      <point x="56" y="127"/>
      <point x="117" y="-5"/>
      <point x="280" y="-5" type="curve" smooth="yes"/>
      <point x="422" y="-5"/>
      <point x="496" y="116"/>
      <point x="496" y="233" type="curve" smooth="yes"/>
      <point x="496" y="353"/>
      <point x="419" y="465"/>
      <point x="288" y="465" type="curve" smooth="yes"/>
      <point x="223" y="465"/>
      <point x="142" y="432"/>
      <point x="111" y="375" type="curve"/>
      <point x="110" y="375" type="line"/>
      <point x="110" y="432" type="line" smooth="yes"/>
      <point x="110" y="502"/>
      <point x="113" y="535"/>
      <point x="126" y="585" type="curve" smooth="yes"/>
      <point x="144" y="653"/>
      <point x="199" y="705"/>
      <point x="281" y="705" type="curve" smooth="yes"/>
      <point x="362" y="705"/>
      <point x="412" y="662"/>
      <point x="414" y="589" type="curve"/>
    </contour>
    <contour>
      <point x="467" y="592" type="line"/>
      <point x="467" y="594"/>
      <point x="467" y="597"/>
      <point x="466" y="600" type="curve"/>
      <point x="414" y="589" type="line"/>
      <point x="414" y="587"/>
      <point x="414" y="587"/>
      <point x="414" y="585" type="curve"/>
    </contour>
    <contour>
      <point x="467" y="592" type="line"/>
      <point x="414" y="585" type="line"/>
    </contour>
  </outline>
</glyph>
<glyph name="oneeighth" format="2">
  <advance width="339"/>
  <unicode hex="215B"/>
  <outline>
    <contour>
      <point x="307" y="0" type="line"/>
      <point x="307" y="50" type="line"/>
      <point x="216" y="50" type="line"/>
      <point x="216" y="750" type="line"/>
      <point x="155" y="750" type="line"/>
      <point x="67" y="718" type="line"/>
      <point x="67" y="670" type="line"/>
      <point x="155" y="689" type="line"/>
      <point x="155" y="50" type="line"/>
      <point x="64" y="50" type="line"/>
      <point x="64" y="0" type="line"/>
    </contour>
    <contour>
      <point x="133" y="-12" type="line"/>
      <point x="329" y="311" type="line"/>
      <point x="522" y="628" type="line"/>
      <point x="489" y="648" type="line"/>
      <point x="296" y="331" type="line"/>
      <point x="100" y="8" type="line"/>
    </contour>
    <contour>
      <point x="472" y="205" type="line"/>
      <point x="472" y="143"/>
      <point x="452" y="93"/>
      <point x="411" y="55" type="curve" smooth="yes"/>
      <point x="370" y="16"/>
      <point x="320" y="-3"/>
      <point x="261" y="-3" type="curve" smooth="yes"/>
      <point x="198" y="-3"/>
      <point x="146" y="18"/>
      <point x="106" y="60" type="curve" smooth="yes"/>
      <point x="66" y="101"/>
      <point x="46" y="152"/>
      <point x="46" y="211" type="curve" smooth="yes"/>
      <point x="46" y="290"/>
      <point x="101" y="367"/>
      <point x="171" y="388" type="curve"/>
      <point x="101" y="423"/>
      <point x="56" y="477"/>
      <point x="56" y="557" type="curve" smooth="yes"/>
      <point x="56" y="618"/>
      <point x="76" y="666"/>
      <point x="115" y="701" type="curve" smooth="yes"/>
      <point x="154" y="736"/>
      <point x="203" y="753"/>
      <point x="261" y="753" type="curve" smooth="yes"/>
      <point x="316" y="753"/>
      <point x="364" y="734"/>
      <point x="403" y="697" type="curve" smooth="yes"/>
      <point x="442" y="660"/>
      <point x="462" y="613"/>
      <point x="462" y="558" type="curve" smooth="yes"/>
      <point x="462" y="487"/>
      <point x="414" y="417"/>
      <point x="348" y="388" type="curve"/>
      <point x="424" y="360"/>
      <point x="472" y="284"/>
      <point x="472" y="204" type="curve"/>
    </contour>
    <contour>
      <point x="419" y="206" type="line" smooth="yes"/>
      <point x="419" y="247"/>
      <point x="403" y="284"/>
      <point x="372" y="316" type="curve" smooth="yes"/>
      <point x="341" y="348"/>
      <point x="304" y="364"/>
      <point x="261" y="364" type="curve" smooth="yes"/>
      <point x="169" y="364"/>
      <point x="99" y="302"/>
      <point x="99" y="208" type="curve" smooth="yes"/>
      <point x="99" y="109"/>
      <point x="173" y="43"/>
      <point x="261" y="43" type="curve" smooth="yes"/>
      <point x="309" y="43"/>
      <point x="347" y="60"/>
      <point x="376" y="94" type="curve" smooth="yes"/>
      <point x="405" y="127"/>
      <point x="419" y="164"/>
      <point x="419" y="205" type="curve" smooth="yes"/>
    </contour>
    <contour>
      <point x="408" y="560" type="line" smooth="yes"/>
      <point x="408" y="648"/>
      <point x="345" y="706"/>
      <point x="261" y="706" type="curve" smooth="yes"/>
      <point x="221" y="706"/>
      <point x="186" y="692"/>
      <point x="155" y="665" type="curve" smooth="yes"/>
      <point x="124" y="638"/>
      <point x="109" y="604"/>
      <point x="109" y="564" type="curve" smooth="yes"/>
      <point x="109" y="474"/>
      <point x="171" y="411"/>
      <point x="261" y="411" type="curve" smooth="yes"/>
      <point x="345" y="411"/>
      <point x="408" y="475"/>
      <point x="408" y="559" type="curve" smooth="yes"/>
    </contour>
  </outline>
</glyph>
<glyph name="minus" format="2">
  <advance width="383"/>
  <unicode hex="2212"/>
  <outline>
    <contour>
      <point x="28" y="257" type="line"/>
      <point x="355" y="257" type="line"/>
      <point x="355" y="207" type="line"/>
      <point x="28" y="207" type="line"/>
    </contour>
  </outline>
</glyph>
<glyph name="circle" format="2">
  <advance width="782"/>
  <unicode hex="25CB"/>
  <outline>
    <contour>
      <point x="391" y="-12" type="curve" smooth="yes"/>
      <point x="579" y="-12"/>
      <point x="725" y="141"/>
      <point x="725" y="329" type="curve" smooth="yes"/>
      <point x="725" y="517"/>
      <point x="579" y="670"/>
      <point x="391" y="670" type="curve" smooth="yes"/>
      <point x="203" y="670"/>
      <point x="57" y="517"/>
      <point x="57" y="329" type="curve" smooth="yes"/>
      <point x="57" y="141"/>
      <point x="203" y="-12"/>
    </contour>
    <contour>
      <point x="391" y="21" type="curve" smooth="yes"/>
      <point x="226" y="21"/>
      <point x="95" y="160"/>
      <point x="95" y="329" type="curve" smooth="yes"/>
      <point x="95" y="498"/>
      <point x="226" y="637"/>
      <point x="391" y="637" type="curve" smooth="yes"/>
      <point x="556" y="637"/>
      <point x="687" y="498"/>
      <point x="687" y="329" type="curve" smooth="yes"/>
      <point x="687" y="160"/>
      <point x="556" y="21"/>
    </contour>
  </outline>
</glyph>
<glyph name="ff" format="2">
  <advance width="358"/>
  <unicode hex="FB00"/>
  <outline>
    <contour>
      <point x="164" y="425" type="line"/>
      <point x="84" y="425" type="line"/>
      <point x="84" y="475" type="line"/>
      <point x="362" y="475" type="line"/>
      <point x="362" y="425" type="line"/>
    </contour>
    <contour>
      <point x="460" y="0" type="line"/>
      <point x="230" y="0" type="line"/>
      <point x="230" y="50" type="line"/>
      <point x="312" y="50" type="line"/>
      <point x="312" y="425" type="line"/>
      <point x="232" y="425" type="line"/>
      <point x="232" y="475" type="line"/>
      <point x="312" y="475" type="line"/>
      <point x="312" y="635" type="line" smooth="yes"/>
      <point x="312" y="709"/>
      <point x="357" y="736"/>
      <point x="400" y="745" type="curve" smooth="yes"/>
      <point x="417" y="749"/>
      <point x="435" y="750"/>
      <point x="448" y="750" type="curve" smooth="yes"/>
      <point x="487" y="751" type="line"/>
      <point x="487" y="700" type="line"/>
      <point x="468" y="700" type="line"/>
      <point x="435" y="699"/>
      <point x="410" y="696"/>
      <point x="394" y="690" type="curve" smooth="yes"/>
      <point x="378" y="684"/>
      <point x="370" y="663"/>
      <point x="370" y="628" type="curve" smooth="yes"/>
      <point x="370" y="475" type="line"/>
      <point x="460" y="475" type="line"/>
      <point x="460" y="425" type="line"/>
      <point x="370" y="425" type="line"/>
      <point x="370" y="50" type="line"/>
      <point x="460" y="50" type="line"/>
    </contour>
    <contour>
      <point x="172" y="0" type="line"/>
      <point x="-58" y="0" type="line"/>
      <point x="-58" y="50" type="line"/>
      <point x="24" y="50" type="line"/>
      <point x="24" y="425" type="line"/>
      <point x="-56" y="425" type="line"/>
      <point x="-56" y="475" type="line"/>
      <point x="24" y="475" type="line"/>
      <point x="24" y="635" type="line" smooth="yes"/>
      <point x="24" y="709"/>
      <point x="69" y="736"/>
      <point x="112" y="745" type="curve" smooth="yes"/>
      <point x="129" y="749"/>
      <point x="147" y="750"/>
      <point x="160" y="750" type="curve" smooth="yes"/>
      <point x="199" y="751" type="line"/>
      <point x="199" y="700" type="line"/>
      <point x="180" y="700" type="line"/>
      <point x="147" y="699"/>
      <point x="122" y="696"/>
      <point x="106" y="690" type="curve" smooth="yes"/>
      <point x="90" y="684"/>
      <point x="82" y="663"/>
      <point x="82" y="628" type="curve" smooth="yes"/>
      <point x="82" y="475" type="line"/>
      <point x="172" y="475" type="line"/>
      <point x="172" y="425" type="line"/>
      <point x="82" y="425" type="line"/>
      <point x="82" y="50" type="line"/>
      <point x="172" y="50" type="line"/>
    </contour>
  </outline>
</glyph>
<glyph name="fl" format="2">
  <advance width="358"/>
  <unicode hex="FB02"/>
  <outline>
    <contour>
      <point x="312" y="0" type="line"/>
      <point x="312" y="50" type="line"/>
      <point x="222" y="50" type="line"/>
      <point x="222" y="425" type="line"/>
      <point x="444" y="425" type="line"/>
      <point x="444" y="50" type="line"/>
      <point x="367" y="50" type="line"/>
      <point x="367" y="0" type="line"/>
      <point x="580" y="0" type="line"/>
      <point x="580" y="50" type="line"/>
      <point x="503" y="50" type="line"/>
      <point x="503" y="750" type="line"/>
      <point x="300" y="750" type="line" smooth="yes"/>
      <point x="287" y="750"/>
      <point x="269" y="749"/>
      <point x="252" y="745" type="curve" smooth="yes"/>
      <point x="209" y="736"/>
      <point x="164" y="709"/>
      <point x="164" y="635" type="curve" smooth="yes"/>
      <point x="164" y="475" type="line"/>
      <point x="84" y="475" type="line"/>
      <point x="84" y="425" type="line"/>
      <point x="164" y="425" type="line"/>
      <point x="164" y="50" type="line"/>
      <point x="82" y="50" type="line"/>
      <point x="82" y="0" type="line"/>
    </contour>
    <contour>
      <point x="369" y="700" type="line"/>
      <point x="444" y="700" type="line"/>
      <point x="444" y="475" type="line"/>
      <point x="222" y="475" type="line"/>
      <point x="222" y="628" type="line" smooth="yes"/>
      <point x="222" y="663"/>
      <point x="236" y="684"/>
      <point x="264" y="691" type="curve" smooth="yes"/>
      <point x="292" y="697"/>
      <point x="323" y="700"/>
      <point x="356" y="700" type="curve" smooth="yes"/>
    </contour>
  </outline>
</glyph>
<glyph name="ffl" format="2">
  <advance width="358"/>
  <unicode hex="FB04"/>
  <outline>
    <contour>
      <point x="312" y="0" type="line"/>
      <point x="82" y="0" type="line"/>
      <point x="82" y="50" type="line"/>
      <point x="164" y="50" type="line"/>
      <point x="164" y="425" type="line"/>
      <point x="84" y="425" type="line"/>
      <point x="84" y="475" type="line"/>
      <point x="164" y="475" type="line"/>
      <point x="164" y="635" type="line" smooth="yes"/>
      <point x="164" y="709"/>
      <point x="209" y="736"/>
      <point x="252" y="745" type="curve" smooth="yes"/>
      <point x="269" y="749"/>
      <point x="287" y="750"/>
      <point x="300" y="750" type="curve" smooth="yes"/>
      <point x="339" y="751" type="line"/>
      <point x="339" y="700" type="line"/>
      <point x="320" y="700" type="line"/>
      <point x="287" y="699"/>
      <point x="262" y="696"/>
      <point x="246" y="690" type="curve" smooth="yes"/>
      <point x="230" y="684"/>
      <point x="222" y="663"/>
      <point x="222" y="628" type="curve" smooth="yes"/>
      <point x="222" y="475" type="line"/>
      <point x="312" y="475" type="line"/>
      <point x="312" y="425" type="line"/>
      <point x="222" y="425" type="line"/>
      <point x="222" y="50" type="line"/>
      <point x="312" y="50" type="line"/>
    </contour>
    <contour>
      <point x="312" y="0" type="line"/>
      <point x="82" y="0" type="line"/>
      <point x="82" y="50" type="line"/>
      <point x="164" y="50" type="line"/>
      <point x="164" y="425" type="line"/>
      <point x="84" y="425" type="line"/>
      <point x="84" y="475" type="line"/>
      <point x="164" y="475" type="line"/>
      <point x="164" y="635" type="line" smooth="yes"/>
      <point x="164" y="709"/>
      <point x="209" y="736"/>
      <point x="252" y="745" type="curve" smooth="yes"/>
      <point x="269" y="749"/>
      <point x="287" y="750"/>
      <point x="300" y="750" type="curve" smooth="yes"/>
      <point x="339" y="751" type="line"/>
      <point x="339" y="700" type="line"/>
      <point x="320" y="700" type="line"/>
      <point x="287" y="699"/>
      <point x="262" y="696"/>
      <point x="246" y="690" type="curve" smooth="yes"/>
      <point x="230" y="684"/>
      <point x="222" y="663"/>
      <point x="222" y="628" type="curve" smooth="yes"/>
      <point x="222" y="475" type="line"/>
      <point x="312" y="475" type="line"/>
      <point x="312" y="425" type="line"/>
      <point x="222" y="425" type="line"/>
      <point x="222" y="50" type="line"/>
      <point x="312" y="50" type="line"/>
    </contour>
    <contour>
      <point x="38" y="750" type="line"/>
      <point x="38" y="700" type="line"/>
      <point x="113" y="700" type="line"/>
      <point x="113" y="50" type="line"/>
      <point x="36" y="50" type="line"/>
      <point x="36" y="0" type="line"/>
      <point x="249" y="0" type="line"/>
      <point x="249" y="50" type="line"/>
      <point x="172" y="50" type="line"/>
      <point x="172" y="750" type="line"/>
    </contour>
  </outline>
</glyph>
<glyph name="longst" format="2">
  <advance width="330"/>
  <unicode hex="FB05"/>
  <outline>
    <contour>
      <point x="177" y="751" type="line"/>
      <point x="177" y="701" type="line"/>
      <point x="177" y="476" type="line"/>
      <point x="287" y="476" type="line"/>
      <point x="287" y="426" type="line"/>
      <point x="177" y="426" type="line"/>
      <point x="177" y="123" type="line" smooth="yes"/>
      <point x="177" y="88"/>
      <point x="185" y="67"/>
      <point x="201" y="61" type="curve" smooth="yes"/>
      <point x="217" y="55"/>
      <point x="242" y="52"/>
      <point x="275" y="51" type="curve" smooth="yes"/>
      <point x="294" y="51" type="line"/>
      <point x="294" y="0" type="line"/>
      <point x="255" y="1" type="line" smooth="yes"/>
      <point x="242" y="1"/>
      <point x="224" y="2"/>
      <point x="207" y="6" type="curve" smooth="yes"/>
      <point x="164" y="15"/>
      <point x="119" y="42"/>
      <point x="119" y="116" type="curve" smooth="yes"/>
      <point x="119" y="426" type="line"/>
      <point x="19" y="426" type="line"/>
      <point x="19" y="476" type="line"/>
      <point x="119" y="476" type="line"/>
      <point x="119" y="701" type="line"/>
      <point x="118" y="701" type="line"/>
      <point x="118" y="751" type="line"/>
    </contour>
  </outline>
</glyph>
<glyph name="st" format="2">
  <advance width="446"/>
  <unicode hex="FB06"/>
  <outline>
    <contour>
      <point x="47" y="0" type="line"/>
      <point x="93" y="0" type="line"/>
      <point x="93" y="55" type="line"/>
      <point x="115" y="19"/>
      <point x="178" y="-10"/>
      <point x="249" y="-10" type="curve" smooth="yes"/>
      <point x="312" y="-11"/>
      <point x="402" y="26"/>
      <point x="402" y="133" type="curve" smooth="yes"/>
      <point x="402" y="214"/>
      <point x="324" y="245"/>
      <point x="233" y="269" type="curve" smooth="yes"/>
      <point x="144" y="295"/>
      <point x="105" y="310"/>
      <point x="102" y="364" type="curve"/>
      <point x="102" y="436"/>
      <point x="146" y="449"/>
      <point x="200" y="450" type="curve" smooth="yes"/>
      <point x="256" y="450"/>
      <point x="314" y="415"/>
      <point x="330" y="351" type="curve"/>
      <point x="375" y="351" type="line"/>
      <point x="375" y="487" type="line"/>
      <point x="329" y="487" type="line"/>
      <point x="329" y="448" type="line"/>
      <point x="307" y="474"/>
      <point x="268" y="496"/>
      <point x="196" y="496" type="curve" smooth="yes"/>
      <point x="133" y="497"/>
      <point x="47" y="469"/>
      <point x="47" y="362" type="curve" smooth="yes"/>
      <point x="47" y="291"/>
      <point x="99" y="257"/>
      <point x="204" y="226" type="curve" smooth="yes"/>
      <point x="312" y="194"/>
      <point x="342" y="180"/>
      <point x="346" y="129" type="curve"/>
      <point x="346" y="61"/>
      <point x="297" y="39"/>
      <point x="244" y="38" type="curve"/>
      <point x="188" y="40"/>
      <point x="93" y="60"/>
      <point x="93" y="167" type="curve" smooth="yes"/>
      <point x="93" y="168" type="line"/>
      <point x="47" y="168" type="line"/>
    </contour>
    <contour>
      <point x="177" y="751" type="line"/>
      <point x="177" y="701" type="line"/>
      <point x="177" y="476" type="line"/>
      <point x="287" y="476" type="line"/>
      <point x="287" y="426" type="line"/>
      <point x="177" y="426" type="line"/>
      <point x="177" y="123" type="line" smooth="yes"/>
      <point x="177" y="88"/>
      <point x="185" y="67"/>
      <point x="201" y="61" type="curve" smooth="yes"/>
      <point x="217" y="55"/>
      <point x="242" y="52"/>
      <point x="275" y="51" type="curve" smooth="yes"/>
      <point x="294" y="51" type="line"/>
      <point x="294" y="0" type="line"/>
      <point x="255" y="1" type="line" smooth="yes"/>
      <point x="242" y="1"/>
      <point x="224" y="2"/>
      <point x="207" y="6" type="curve" smooth="yes"/>
      <point x="164" y="15"/>
      <point x="119" y="42"/>
      <point x="119" y="116" type="curve" smooth="yes"/>
      <point x="119" y="426" type="line"/>
      <point x="19" y="426" type="line"/>
      <point x="19" y="476" type="line"/>
      <point x="119" y="476" type="line"/>
      <point x="119" y="701" type="line"/>
      <point x="118" y="701" type="line"/>
      <point x="118" y="751" type="line"/>
    </contour>
  </outline>
</glyph>
<glyph name="hungarumlaut.case" format="2">
  <advance width="278"/>
  <outline>
    <contour>
      <point x="181" y="649" type="line"/>
      <point x="104" y="649" type="line"/>
      <point x="8" y="510" type="line"/>
      <point x="58" y="510" type="line"/>
    </contour>
    <contour>
      <point x="335" y="649" type="line"/>
      <point x="258" y="649" type="line"/>
      <point x="147" y="510" type="line"/>
      <point x="197" y="510" type="line"/>
    </contour>
  </outline>
</glyph>
